<svg xmlns="http://www.w3.org/2000/svg" viewBox="0 0 88.21 59"><rect x="6.17" width="77" height="54" rx="4.45" style="fill:#219ebc"/><rect x="24.17" y="-4" width="41" height="63" transform="translate(72.17 -17.17) rotate(90)" style="fill:#fff8f0"/><rect x="72.17" y="7" width="4" height="41" style="fill:#fb8500"/><path d="M85.84,51H54.79l-1.3,2H34.72l-1.3-2h-31A2.34,2.34,0,0,0,.11,54c1.4,4.38,5.43,5,10,5H78.13c4.54,0,8.57-.62,10-5A2.34,2.34,0,0,0,85.84,51Z" style="fill:#fb8500"/><rect x="27.17" y="27" width="9" height="15" style="fill:#cbf3f0"/><rect x="39.17" y="24" width="9" height="18" style="fill:#fb8500"/><rect x="51.17" y="17" width="9" height="26" style="fill:#219ebc"/></svg>