<svg xmlns="http://www.w3.org/2000/svg" viewBox="0 0 69 64.9"><path d="M17.61,64.9H13.89A2.89,2.89,0,0,1,11,62V32.9H25.53l-2.9,27.48A5,5,0,0,1,17.61,64.9Z" style="fill:#fb8500"/><path d="M1.73,23.9H6a0,0,0,0,1,0,0v8a0,0,0,0,1,0,0H1.73A1.73,1.73,0,0,1,0,30.17V25.64A1.73,1.73,0,0,1,1.73,23.9Z" style="fill:#fff"/><circle cx="62" cy="27.9" r="7" style="fill:#219ebc"/><path d="M61,.55a3.65,3.65,0,0,1,2,3.32v48a3.56,3.56,0,0,1-1.06,2.55,3.61,3.61,0,0,1-5.76-.89C52.53,46.4,36.62,43.89,30,43.92V11.71c6.62,0,22.53-2.47,26.18-9.58A3.64,3.64,0,0,1,61,.55Z" style="fill:#fff8f0"/><path d="M57.53.45A3.29,3.29,0,0,0,56.14,2L56,2.21V53.43c0,.08.1.16.14.24a3.64,3.64,0,0,0,3.22,2A3.65,3.65,0,0,0,63,52V3.64A3.68,3.68,0,0,0,57.53.45Z" style="fill:#219ebc"/><path d="M63,47.06v4.59a3.62,3.62,0,0,1-6.86,1.66c0-.08-.1-.15-.14-.23V42A35.4,35.4,0,0,1,63,47.06Z" style="fill:#219ebc"/><path d="M14.09,11.9H30a0,0,0,0,1,0,0v32a0,0,0,0,1,0,0H14.09A11.09,11.09,0,0,1,3,32.82V23A11.09,11.09,0,0,1,14.09,11.9Z" style="fill:#219ebc"/><path d="M3,23.51v9.43a11,11,0,0,0,11,11H30v-9H14.16A11.28,11.28,0,0,1,3,23.51Z" style="fill:#fb8500"/><path d="M30.34,43.74h0c6.54,0,22.29,2.46,25.9,9.49a3.59,3.59,0,0,0,3.17,1.93A3.58,3.58,0,0,0,63,51.6V47.09c-12.09-11.31-32.66-12-32.66-12S30.34,43.5,30.34,43.74Z" style="fill:#cbf3f0"/><path d="M63,47.06v4.59a3.65,3.65,0,0,1-4.83,3.44,3.53,3.53,0,0,1-2-1.81L56,53.05V42A35.4,35.4,0,0,1,63,47.06Z" style="fill:#fb8500"/></svg>