<svg xmlns="http://www.w3.org/2000/svg" viewBox="0 0 62.14 66.12"><path d="M62.12,33.2l-2.88,6.39a.74.74,0,0,1-.14.22.86.86,0,0,1-.2.18,1,1,0,0,1-.24.11,1.17,1.17,0,0,1-.26,0,1.09,1.09,0,0,1-.26,0A1,1,0,0,1,58,40l.12-.12a.74.74,0,0,0,.14-.22l2.88-6.39a.59.59,0,0,0,0-.37V3.75c0-.11,0-.24,0-.35s0-.24,0-.36L61,2.69c0-.11-.08-.22-.13-.34L60.7,2c-.06-.1-.12-.2-.19-.3l-.21-.29a3.2,3.2,0,0,0-.25-.27,3,3,0,0,0-.26-.24A3.06,3.06,0,0,0,59.5.72L59.2.53,58.87.38,58.54.26,58.19.17,57.83.12h-.26a.59.59,0,0,1,.19,0,1.48,1.48,0,0,1,.35,0,3.25,3.25,0,0,1,.72,0,1.34,1.34,0,0,1,.35.05,2,2,0,0,1,.35.09l.33.11a2.53,2.53,0,0,1,.33.16,3.14,3.14,0,0,1,.31.18,3.06,3.06,0,0,1,.29.21l.26.24.25.27.21.29a3.14,3.14,0,0,1,.18.31,1.87,1.87,0,0,1,.15.32,2.19,2.19,0,0,1,.12.33,2.25,2.25,0,0,1,.09.35,2.23,2.23,0,0,1,.05.36,2.17,2.17,0,0,1,0,.36V32.83A.77.77,0,0,1,62.12,33.2Z" style="fill:#fb8500"/><path d="M10.61.05H46.44a5,5,0,0,1,5,5V61.16a5,5,0,0,1-5,5H10.61a0,0,0,0,1,0,0V.05A0,0,0,0,1,10.61.05Z" style="fill:#219ebc"/><path d="M48.11,5.86A4.41,4.41,0,0,0,48,5.24c0-.2-.09-.4-.14-.61s-.13-.39-.21-.58a5,5,0,0,0-.27-.57,3.26,3.26,0,0,0-.31-.54,4.54,4.54,0,0,0-.36-.5c-.13-.16-.27-.32-.41-.47a6.1,6.1,0,0,0-.46-.41,3.57,3.57,0,0,0-.49-.38,4,4,0,0,0-.52-.32A5.6,5.6,0,0,0,44.3.59a5.71,5.71,0,0,0-.58-.21,3.92,3.92,0,0,0-.59-.15l-.61-.1-.61,0H9l-.61,0-.61.1a4.25,4.25,0,0,0-.59.15,5.71,5.71,0,0,0-.58.21A5.6,5.6,0,0,0,6,.86a4,4,0,0,0-.52.32,3.66,3.66,0,0,0-.5.38L4.57,2c-.14.15-.28.31-.41.47s-.25.32-.37.5-.21.35-.31.54a3.68,3.68,0,0,0-.26.57c-.08.19-.15.39-.21.58s-.1.41-.14.61-.07.41-.1.62,0,.42,0,.63V59.73c0,.21,0,.41,0,.63s.06.41.1.61.09.41.14.61a7.29,7.29,0,0,0,.47,1.16c.1.19.2.37.31.54s.24.34.37.5.27.31.41.46.3.29.45.42a4.7,4.7,0,0,0,.5.38,5.58,5.58,0,0,0,.52.32,3.94,3.94,0,0,0,.55.26,4.07,4.07,0,0,0,.58.22c.2.06.39.11.59.15a4.08,4.08,0,0,0,.61.09,6,6,0,0,0,.61,0H41.91a6,6,0,0,0,.61,0,4.08,4.08,0,0,0,.61-.09,5.66,5.66,0,0,0,.59-.15,4.07,4.07,0,0,0,.58-.22,3.94,3.94,0,0,0,.55-.26,5.58,5.58,0,0,0,.52-.32,7.74,7.74,0,0,0,1-.8c.14-.15.28-.3.41-.46a5.74,5.74,0,0,0,.36-.5,3.65,3.65,0,0,0,.32-.54c.09-.19.18-.37.26-.57s.14-.39.21-.59.1-.4.14-.61a4.28,4.28,0,0,0,.09-.61,4.5,4.5,0,0,0,0-.63V6.49A4.43,4.43,0,0,0,48.11,5.86ZM46.36,59.73a3.39,3.39,0,0,1,0,.45c0,.14,0,.29-.06.44s-.06.29-.1.43-.1.29-.16.43a3.52,3.52,0,0,1-.18.4c-.07.13-.15.26-.23.38a3.27,3.27,0,0,1-.25.36l-.3.33a3,3,0,0,1-.32.3c-.11.09-.23.19-.35.27l-.38.23-.4.2-.41.14a2.88,2.88,0,0,1-.42.11l-.43.07-.44,0H9l-.44,0L8.1,64.2a3.11,3.11,0,0,1-.41-.11A3.93,3.93,0,0,1,7.28,64l-.4-.2c-.13-.07-.25-.15-.37-.23l-.36-.27c-.11-.09-.21-.19-.32-.3s-.2-.21-.3-.33-.17-.23-.25-.36-.16-.25-.23-.38a3.52,3.52,0,0,1-.18-.4,3.12,3.12,0,0,1-.15-.43c0-.14-.08-.29-.11-.43s-.05-.3-.06-.44a3.4,3.4,0,0,1,0-.45V6.49a3.4,3.4,0,0,1,0-.45c0-.15,0-.3.06-.44s.07-.29.11-.43a3.12,3.12,0,0,1,.15-.43,3.52,3.52,0,0,1,.18-.4A3.48,3.48,0,0,1,5.28,4c.08-.13.17-.25.25-.36s.2-.23.3-.33L6.15,3l.36-.26a2.85,2.85,0,0,1,.37-.23,1.84,1.84,0,0,1,.4-.19,1.84,1.84,0,0,1,.41-.16A3.06,3.06,0,0,1,8.1,2,3.35,3.35,0,0,1,8.54,2a3.17,3.17,0,0,1,.44,0H41.91a3.24,3.24,0,0,1,.44,0,3,3,0,0,1,.43.07,2.86,2.86,0,0,1,.42.1,1.84,1.84,0,0,1,.41.16,2.09,2.09,0,0,1,.4.19,3.85,3.85,0,0,1,.38.23l.35.26c.11.1.22.2.32.31l.3.33a3.27,3.27,0,0,1,.25.36,3.48,3.48,0,0,1,.23.38,3.52,3.52,0,0,1,.18.4c.06.14.11.28.16.43s.07.29.1.43,0,.29.06.44a3.39,3.39,0,0,1,0,.45Z" style="fill:#fb8500"/><path d="M46.36,6.49V59.73a3.39,3.39,0,0,1,0,.45c0,.14,0,.29-.06.44s-.06.29-.1.43-.1.29-.16.43a3.52,3.52,0,0,1-.18.4c-.07.13-.15.26-.23.38a3.27,3.27,0,0,1-.25.36l-.3.33a3,3,0,0,1-.32.3c-.11.09-.23.19-.35.27l-.38.23-.4.2-.41.14a2.88,2.88,0,0,1-.42.11l-.43.07-.44,0H9l-.44,0L8.1,64.2a3.11,3.11,0,0,1-.41-.11A3.93,3.93,0,0,1,7.28,64l-.4-.2c-.13-.07-.25-.15-.37-.23l-.36-.27c-.11-.09-.21-.19-.32-.3s-.2-.21-.3-.33-.17-.23-.25-.36-.16-.25-.23-.38a3.52,3.52,0,0,1-.18-.4,3.12,3.12,0,0,1-.15-.43c0-.14-.08-.29-.11-.43s-.05-.3-.06-.44a3.4,3.4,0,0,1,0-.45V6.49a3.4,3.4,0,0,1,0-.45c0-.15,0-.3.06-.44s.07-.29.11-.43a3.12,3.12,0,0,1,.15-.43,3.52,3.52,0,0,1,.18-.4A3.48,3.48,0,0,1,5.28,4c.08-.13.17-.25.25-.36s.2-.23.3-.33L6.15,3l.36-.26a2.85,2.85,0,0,1,.37-.23,1.84,1.84,0,0,1,.4-.19,1.84,1.84,0,0,1,.41-.16A3.06,3.06,0,0,1,8.1,2,3.35,3.35,0,0,1,8.54,2a3.17,3.17,0,0,1,.44,0H41.91a3.24,3.24,0,0,1,.44,0,3,3,0,0,1,.43.07,2.86,2.86,0,0,1,.42.1,1.84,1.84,0,0,1,.41.16,2.09,2.09,0,0,1,.4.19,3.85,3.85,0,0,1,.38.23l.35.26c.11.1.22.2.32.31l.3.33a3.27,3.27,0,0,1,.25.36,3.48,3.48,0,0,1,.23.38,3.52,3.52,0,0,1,.18.4c.06.14.11.28.16.43s.07.29.1.43,0,.29.06.44A3.39,3.39,0,0,1,46.36,6.49Z" style="fill:#fff8f0"/><path d="M11,7.4H8.22v9.12H11a2.55,2.55,0,0,0,.39,0l.39-.08.37-.14a2.27,2.27,0,0,0,.34-.19,2.43,2.43,0,0,0,.32-.24,2.47,2.47,0,0,0,.28-.28,3.55,3.55,0,0,0,.23-.31l.19-.35c0-.12.09-.25.13-.37a2.7,2.7,0,0,0,.08-.39,2.61,2.61,0,0,0,0-.4,1.72,1.72,0,0,0,0-.39,2.34,2.34,0,0,0-.09-.38,2.39,2.39,0,0,0-.15-.37,2.27,2.27,0,0,0-.19-.34A3.76,3.76,0,0,0,13,12a2.6,2.6,0,0,0,.25-.31,2.27,2.27,0,0,0,.19-.34,2.35,2.35,0,0,0,.24-.75,1.72,1.72,0,0,0,0-.39,2.68,2.68,0,0,0,0-.4,2.33,2.33,0,0,0-.08-.38c0-.13-.08-.25-.13-.37a3.9,3.9,0,0,0-.19-.35,3.71,3.71,0,0,0-.23-.32l-.28-.28a2.43,2.43,0,0,0-.32-.24l-.34-.19a2.72,2.72,0,0,0-.37-.13,1.8,1.8,0,0,0-.39-.08Zm0,1.83h.17l.17,0,.16.09.14.11a.76.76,0,0,1,.11.14.83.83,0,0,1,.09.16.84.84,0,0,1,0,.17.82.82,0,0,1,0,.36,1.54,1.54,0,0,1,0,.17,1.19,1.19,0,0,1-.09.15.76.76,0,0,1-.11.14l-.14.12L11.3,11l-.17,0-.17,0H10V9.23Zm0,5.47H10V12.87H11l.17,0,.17,0a.83.83,0,0,1,.16.09l.14.11a.76.76,0,0,1,.11.14.83.83,0,0,1,.09.16.84.84,0,0,1,0,.17,1.1,1.1,0,0,1,0,.18.88.88,0,0,1,0,.17.84.84,0,0,1,0,.17.83.83,0,0,1-.09.16.76.76,0,0,1-.11.14l-.14.11a.51.51,0,0,1-.16.09l-.17,0Z" style="fill:#219ebc"/><path d="M21,10.14a3.29,3.29,0,0,0,0-.54,3.33,3.33,0,0,0-.16-.51,2.64,2.64,0,0,0-.25-.47,3.47,3.47,0,0,0-.34-.42,3.47,3.47,0,0,0-.42-.34,2.64,2.64,0,0,0-.47-.25,3.33,3.33,0,0,0-.51-.16,3.29,3.29,0,0,0-.54,0H15.52v9.12h1.82V14.17l2.55,2.54,1.28-1.28L18.6,12.87a2.84,2.84,0,0,0,.49-.1,2.53,2.53,0,0,0,.45-.19,3,3,0,0,0,.42-.27,3,3,0,0,0,.36-.35,2.27,2.27,0,0,0,.29-.4,2.31,2.31,0,0,0,.21-.45,2.42,2.42,0,0,0,.13-.48A2.7,2.7,0,0,0,21,10.14Zm-2.74.91h-.91V9.23h1.09l.17,0,.16.09.14.11a.76.76,0,0,1,.11.14l.09.16a.84.84,0,0,1,0,.17c0,.06,0,.12,0,.18s0,.12,0,.18a1.54,1.54,0,0,1,0,.17l-.09.15a.76.76,0,0,1-.11.14l-.14.12L18.6,11l-.17,0Z" style="fill:#219ebc"/><path d="M28.29,16.52V10.14a2.48,2.48,0,0,0-.06-.54,2.46,2.46,0,0,0-.15-.51,2.64,2.64,0,0,0-.25-.47,3.47,3.47,0,0,0-.34-.42,3.47,3.47,0,0,0-.42-.34,3,3,0,0,0-.47-.25,3.13,3.13,0,0,0-.52-.16,2.83,2.83,0,0,0-1.06,0,3.13,3.13,0,0,0-.52.16,3,3,0,0,0-.47.25,3.47,3.47,0,0,0-.42.34,2.8,2.8,0,0,0-.59.89,2.46,2.46,0,0,0-.15.51,2.48,2.48,0,0,0-.06.54v6.38h1.83V13.79h1.82v2.73ZM24.64,12V10.14a.55.55,0,0,1,0-.18.48.48,0,0,1,.05-.17.8.8,0,0,1,.08-.16.53.53,0,0,1,.12-.14A.69.69,0,0,1,25,9.38l.16-.09.17,0h.36l.17,0,.16.09.14.11a.76.76,0,0,1,.11.14.8.8,0,0,1,.08.16.85.85,0,0,1,.06.17,1.09,1.09,0,0,1,0,.18V12Z" style="fill:#219ebc"/><path d="M34.82,16.08a.82.82,0,0,0,.32.32.88.88,0,0,0,.44.12h.26a1.23,1.23,0,0,0,.26-.12,1,1,0,0,0,.21-.21.77.77,0,0,0,.14-.25,1,1,0,0,0,0-.29V7.4H34.67v5l-2.88-4.6a1.08,1.08,0,0,0-.18-.24,1.32,1.32,0,0,0-.25-.16,1,1,0,0,0-.29-.07.75.75,0,0,0-.3,0,.84.84,0,0,0-.27.13.88.88,0,0,0-.22.21,1.11,1.11,0,0,0-.13.27,1,1,0,0,0,0,.3v8.21h1.82v-5Z" style="fill:#219ebc"/><path d="M43.79,13.79V10.14a2.47,2.47,0,0,0,0-.54,3.28,3.28,0,0,0-.15-.51,2.68,2.68,0,0,0-.26-.47A2.72,2.72,0,0,0,43,8.2a3.36,3.36,0,0,0-.41-.34,3.06,3.06,0,0,0-1-.41,3.17,3.17,0,0,0-.53,0H38.32v9.12h2.74a2.38,2.38,0,0,0,.53-.05,2.16,2.16,0,0,0,.51-.16,2.19,2.19,0,0,0,.48-.25,2.87,2.87,0,0,0,.75-.75,2.77,2.77,0,0,0,.26-.48,2.74,2.74,0,0,0,.15-.51A2.38,2.38,0,0,0,43.79,13.79Zm-1.82,0A.88.88,0,0,1,42,14a.84.84,0,0,1-.05.17.8.8,0,0,1-.08.16l-.12.14-.14.11-.15.09-.18,0-.17,0h-.92V9.23h1.09l.18,0,.15.09.14.11.12.14a.8.8,0,0,1,.08.16A.84.84,0,0,1,42,10a1.1,1.1,0,0,1,0,.18Z" style="fill:#219ebc"/><path d="M10,22H42.88v1.82H10Z" style="fill:#219ebc"/><path d="M10,30.2H42.88V32H10Z" style="fill:#219ebc"/><path d="M31.93,37.5h11v1.83h-11Z" style="fill:#219ebc"/><path d="M61.12,32.94V3.75c0-.11,0-.24,0-.35s0-.24,0-.36L61,2.69c0-.11-.08-.22-.13-.34L60.7,2c-.06-.1-.12-.2-.19-.3l-.21-.29a3.2,3.2,0,0,0-.25-.27,3,3,0,0,0-.26-.24A3.06,3.06,0,0,0,59.5.72L59.2.53,58.87.38,58.54.26,58.19.17,57.83.12h-.71l-.36.05c-.11,0-.23,0-.34.09l-.34.12-.32.15-.31.19a2.92,2.92,0,0,0-.28.21,3.22,3.22,0,0,0-.28.24,3,3,0,0,0-.23.27,3.15,3.15,0,0,0-.22.29l-.18.3-.16.32c0,.12-.08.23-.11.34A2.25,2.25,0,0,0,53.9,3a2.23,2.23,0,0,0,0,.36,2.07,2.07,0,0,0,0,.35V32.94a1.15,1.15,0,0,0,0,.37l2.74,6.39a1.64,1.64,0,0,0,.14.22,1.71,1.71,0,0,0,.2.18,1.28,1.28,0,0,0,.24.11,1.09,1.09,0,0,0,.26,0,1.26,1.26,0,0,0,.27,0,1.28,1.28,0,0,0,.24-.11L58,40l.12-.12a.74.74,0,0,0,.14-.22l2.88-6.39A.59.59,0,0,0,61.12,32.94ZM57.48,37l-1.35-3.16h2.7ZM55.65,3.75c0-.12,0-.24,0-.35a2.35,2.35,0,0,1,.11-.35A2.38,2.38,0,0,1,56,2.74a2,2,0,0,1,.23-.28,1.51,1.51,0,0,1,.28-.22,1,1,0,0,1,.31-.17,1,1,0,0,1,.34-.1,1.42,1.42,0,0,1,.36,0,1.39,1.39,0,0,1,.35,0,1.15,1.15,0,0,1,.35.1,1.59,1.59,0,0,1,.31.17,1.93,1.93,0,0,1,.28.22,1.93,1.93,0,0,1,.22.28,1.59,1.59,0,0,1,.17.31,1.54,1.54,0,0,1,.1.35,1.34,1.34,0,0,1,0,.35Z" style="fill:#219ebc"/><rect x="58.27" y="4.29" width="1.03" height="28.47" style="fill:#cbf3f0"/><rect x="57.19" y="4.29" width="1.37" height="28.47" style="fill:#cbf3f0;opacity:0.5"/><path d="M28.28,44.8v9.12c0,.15,0,.3,0,.45s0,.29-.07.44a2.36,2.36,0,0,1-.11.44c0,.14-.09.28-.14.42s-.13.27-.2.4-.15.26-.23.39-.17.24-.26.35-.2.23-.31.34a2.28,2.28,0,0,1-.33.29,3.44,3.44,0,0,1-.36.28l-.38.23-.4.19-.43.14a2.26,2.26,0,0,1-.43.11,3.35,3.35,0,0,1-.44.07l-.45,0H4.57l-.46,0a3.64,3.64,0,0,1-.44-.07,2.26,2.26,0,0,1-.43-.11l-.42-.14L2.41,58,2,57.72l-.36-.28a4.28,4.28,0,0,1-.33-.29c-.11-.11-.2-.22-.3-.34l-.27-.35c-.08-.13-.16-.26-.23-.39a2.93,2.93,0,0,1-.19-.4c0-.14-.11-.28-.15-.42S.12,55,.09,54.81s0-.29-.07-.44,0-.3,0-.45V44.8c0-.15,0-.3,0-.45s0-.29.07-.44.07-.29.11-.44.1-.28.15-.42a3.62,3.62,0,0,1,.19-.4c.07-.13.15-.26.23-.39L1,41.91c.1-.12.19-.23.3-.34l.33-.29L2,41l.38-.22.41-.2.42-.14a2.26,2.26,0,0,1,.43-.11,3.64,3.64,0,0,1,.44-.07l.46,0H23.72l.45,0a3.35,3.35,0,0,1,.44.07,2.26,2.26,0,0,1,.43.11l.43.14.4.2c.13.07.26.14.38.22a3.44,3.44,0,0,1,.36.28,3.11,3.11,0,0,1,.33.29c.11.11.21.22.31.34s.18.23.26.35.16.26.23.39l.2.4c0,.14.1.28.14.42a2.36,2.36,0,0,1,.11.44c0,.15,0,.29.07.44S28.28,44.65,28.28,44.8Z" style="fill:#219ebc"/><path d="M10,45.71H6.39l-.18,0L6,45.78a.51.51,0,0,0-.16.09L5.74,46a.76.76,0,0,0-.11.14,1.09,1.09,0,0,0-.08.15,1.27,1.27,0,0,0-.06.18,1,1,0,0,0,0,.17V52.1a1.09,1.09,0,0,0,0,.18,1.77,1.77,0,0,0,.06.17,1.09,1.09,0,0,0,.08.15.76.76,0,0,0,.11.14l.14.12a.8.8,0,0,0,.16.08l.17.05.18,0H10l.17,0,.18-.05.15-.08.14-.12.12-.14a1.09,1.09,0,0,0,.08-.15,1.54,1.54,0,0,0,0-.17,1.1,1.1,0,0,0,0-.18V46.62a1,1,0,0,0,0-.17,1.21,1.21,0,0,0,0-.18,1.09,1.09,0,0,0-.08-.15L10.68,46l-.14-.11a.6.6,0,0,0-.15-.09l-.18-.05Zm-.92,5.47H7.3V47.54H9.12Z" style="fill:#cbf3f0"/><path d="M14.6,45.71h7.3v1.83H14.6Z" style="fill:#cbf3f0"/><path d="M13.69,50.27h9.12V52.1H13.69Z" style="fill:#cbf3f0"/><path d="M58.18,48c0-.15,0-.3-.06-.44a3,3,0,0,0-.12-.43,4.13,4.13,0,0,0-.14-.42l-.19-.42-.23-.37c-.09-.13-.18-.25-.28-.37a2.89,2.89,0,0,0-.29-.32l-.33-.31-.36-.26-.39-.23a2.93,2.93,0,0,0-.4-.19L55,44.08,54.53,44c-.15,0-.29,0-.44-.06l-.45,0H40.87a3.25,3.25,0,0,0-.44,0L40,44l-.43.11-.42.16a3.75,3.75,0,0,0-.41.19l-.38.23a3.32,3.32,0,0,0-.36.26,3.26,3.26,0,0,0-.33.31,3,3,0,0,0-.3.32,3.18,3.18,0,0,0-.27.37c-.08.12-.16.24-.23.37s-.13.28-.19.42a2.6,2.6,0,0,0-.15.42,3,3,0,0,0-.11.43c0,.14,0,.29-.07.44s0,.3,0,.45v5.47c0,.15,0,.3,0,.45s0,.29.07.44a4.59,4.59,0,0,0,.26.86c.06.14.12.27.19.4s.15.26.23.39a3,3,0,0,0,.27.35,3.17,3.17,0,0,0,.3.34,2.28,2.28,0,0,0,.33.29,3.44,3.44,0,0,0,.36.28l.38.23.41.19.42.14a2.47,2.47,0,0,0,.43.11,3.5,3.5,0,0,0,.45.07l.44,0H53.64l.45,0a3.35,3.35,0,0,0,.44-.07,2.36,2.36,0,0,0,.44-.11l.42-.14.4-.19.39-.23.36-.28a4.28,4.28,0,0,0,.33-.29,3.07,3.07,0,0,0,.29-.34c.1-.11.19-.23.28-.35l.23-.39c.06-.13.13-.26.19-.4s.1-.28.14-.42a3.6,3.6,0,0,0,.12-.44c0-.15.05-.29.06-.44s0-.3,0-.45V48.45C58.2,48.3,58.19,48.15,58.18,48Zm-1.8,5.92a3.29,3.29,0,0,1-.05.54,3.33,3.33,0,0,1-.16.51,2.83,2.83,0,0,1-.26.48,2.47,2.47,0,0,1-.33.41,3.12,3.12,0,0,1-.41.33,2.49,2.49,0,0,1-.48.26,5,5,0,0,1-.51.16,3.27,3.27,0,0,1-.54,0H40.87a3.15,3.15,0,0,1-.53,0,3.8,3.8,0,0,1-.51-.16,2.23,2.23,0,0,1-.48-.26,2.2,2.2,0,0,1-.41-.33,3.21,3.21,0,0,1-.34-.41,2.21,2.21,0,0,1-.25-.48,2,2,0,0,1-.16-.51,3.31,3.31,0,0,1-.06-.54V48.45a3.17,3.17,0,0,1,.15-.87,2.74,2.74,0,0,1,.42-.77L46.76,52a.86.86,0,0,0,.24.11,1.09,1.09,0,0,0,.26,0,1,1,0,0,0,.25,0,.74.74,0,0,0,.24-.11l8.07-5.14a2.74,2.74,0,0,1,.42.77,2.83,2.83,0,0,1,.14.87Z" style="fill:#219ebc"/><path d="M56.38,48.45v5.47a3.29,3.29,0,0,1-.05.54,3.33,3.33,0,0,1-.16.51,2.83,2.83,0,0,1-.26.48,2.47,2.47,0,0,1-.33.41,3.12,3.12,0,0,1-.41.33,2.49,2.49,0,0,1-.48.26,5,5,0,0,1-.51.16,3.27,3.27,0,0,1-.54,0H40.87a3.15,3.15,0,0,1-.53,0,3.8,3.8,0,0,1-.51-.16,2.23,2.23,0,0,1-.48-.26,2.2,2.2,0,0,1-.41-.33,3.21,3.21,0,0,1-.34-.41,2.21,2.21,0,0,1-.25-.48,2,2,0,0,1-.16-.51,3.31,3.31,0,0,1-.06-.54V48.45a3.17,3.17,0,0,1,.15-.87,2.74,2.74,0,0,1,.42-.77L46.76,52a.86.86,0,0,0,.24.11,1.09,1.09,0,0,0,.26,0,1,1,0,0,0,.25,0,.74.74,0,0,0,.24-.11l8.07-5.14a2.74,2.74,0,0,1,.42.77A2.83,2.83,0,0,1,56.38,48.45Z" style="fill:#cbf3f0"/></svg>