<svg xmlns="http://www.w3.org/2000/svg" viewBox="0 0 70.22 65.42"><path d="M56.75,4.18s1.34,54.53,0,57.05-5.08,3.67-5.08,3.67h6.24a5,5,0,0,0,5.06-5v-20l-.08-14.94V5a5,5,0,0,0-5-5H47C55-.41,56.75,4.18,56.75,4.18Z" style="fill:#219ebc"/><path d="M28.76,55.79A1.2,1.2,0,0,1,27.59,57H9.08a1.17,1.17,0,1,1,0-2.33H27.59A1.15,1.15,0,0,1,28.76,55.79Z" style="fill:none"/><rect x="7.91" y="20.82" width="22.4" height="10.81" rx="1.17" style="fill:none"/><path d="M32.64,47.32a1.2,1.2,0,0,1-1.16,1.17H9.08a1.21,1.21,0,0,1-1.17-1.17,1.19,1.19,0,0,1,1.17-1.16H31.56A1.11,1.11,0,0,1,32.64,47.32Z" style="fill:none"/><path d="M7.91,38.93a1.21,1.21,0,0,1,1.17-1.17h26a1.17,1.17,0,1,1,0,2.33h-26A1.2,1.2,0,0,1,7.91,38.93Z" style="fill:none"/><path d="M35.37,30.46a1.19,1.19,0,0,1,1.16-1.16h9.73a1.17,1.17,0,0,1,0,2.33H36.53A1.14,1.14,0,0,1,35.37,30.46Z" style="fill:none"/><path d="M35.37,22a1.2,1.2,0,0,1,1.16-1.17H49.21a1.17,1.17,0,1,1,0,2.33H36.53A1.14,1.14,0,0,1,35.37,22Z" style="fill:none"/><path d="M0,0V65.42H70.22V0ZM2.39,60.37V14.76H55.9V27.43L37.47,45.84a1.78,1.78,0,0,0-.32.47L34,55.4a1.1,1.1,0,0,0,.3,1.24,1.21,1.21,0,0,0,.87.31.66.66,0,0,0,.38-.08l9.1-3.18a1.47,1.47,0,0,0,.47-.31L56,42.5V60.37H55.9a2.75,2.75,0,0,1-2.72,2.72H5.11A2.8,2.8,0,0,1,2.39,60.37Z" style="fill:none"/><path d="M69,24.63l-2.71-2.79A3.31,3.31,0,0,0,62.89,21a4,4,0,0,0-1.39.85L58.24,25.1v-20a5,5,0,0,0-4.48-5,3.69,3.69,0,0,0-.58,0H5.11A5.15,5.15,0,0,0,.05,5.05V60.37a5,5,0,0,0,5.06,5.05H53.26a5.05,5.05,0,0,0,5.05-5.05V40.17l4.63-4.64,6.18-6.16A3.39,3.39,0,0,0,69,24.63ZM22.22,6.21h1.56a1.17,1.17,0,0,1,0,2.34H22.22a1.17,1.17,0,0,1,0-2.34Zm-6.84,0h1.55a1.17,1.17,0,1,1,0,2.34H15.38a1.17,1.17,0,1,1,0-2.34Zm-6.84,0h1.55a1.17,1.17,0,0,1,0,2.34H8.54a1.17,1.17,0,0,1,0-2.34ZM56,60.37H55.9a2.75,2.75,0,0,1-2.72,2.72H5.11a2.8,2.8,0,0,1-2.72-2.72V14.76H55.9V27.43L37.47,45.84a1.78,1.78,0,0,0-.32.47L34,55.4a1.1,1.1,0,0,0,.3,1.24,1.21,1.21,0,0,0,.87.31.66.66,0,0,0,.38-.08l9.1-3.18a1.47,1.47,0,0,0,.47-.31L56,42.5Zm7-28.07-5.62,5.59-13.07,13L40,46.69,57.22,29.45,58.7,28,63,32.25Z" style="fill:#fb8500"/><polygon points="62.98 32.25 62.93 32.3 57.31 37.89 44.24 50.89 39.96 46.69 57.22 29.45 58.7 27.97 62.98 32.25" style="fill:#fb8500"/><path d="M45.09,53.38a1.47,1.47,0,0,1-.47.31l-9.1,3.18a.66.66,0,0,1-.38.08,1.21,1.21,0,0,1-.87-.31A1.1,1.1,0,0,1,34,55.4l3.18-9.09a1.78,1.78,0,0,1,.32-.47L55.9,27.43V14.76H2.39V60.37a2.8,2.8,0,0,0,2.72,2.72H53.18a2.75,2.75,0,0,0,2.72-2.72H56V42.5ZM36.53,20.82H49.21a1.17,1.17,0,1,1,0,2.33H36.53A1.14,1.14,0,0,1,35.37,22,1.2,1.2,0,0,1,36.53,20.82Zm0,8.48h9.73a1.17,1.17,0,0,1,0,2.33H36.53a1.14,1.14,0,0,1-1.16-1.17A1.19,1.19,0,0,1,36.53,29.3ZM7.91,22a1.21,1.21,0,0,1,1.17-1.17H29.15A1.2,1.2,0,0,1,30.31,22v8.47a1.2,1.2,0,0,1-1.16,1.17H9.08a1.21,1.21,0,0,1-1.17-1.17ZM9.08,37.76h26a1.17,1.17,0,1,1,0,2.33h-26a1.17,1.17,0,1,1,0-2.33ZM27.59,57H9.08a1.17,1.17,0,1,1,0-2.33H27.59a1.15,1.15,0,0,1,1.17,1.17A1.2,1.2,0,0,1,27.59,57Zm3.89-8.46H9.08a1.21,1.21,0,0,1-1.17-1.17,1.19,1.19,0,0,1,1.17-1.16H31.56a1.11,1.11,0,0,1,1.08,1.16A1.2,1.2,0,0,1,31.48,48.49Z" style="fill:#fff8f0"/><path d="M50.38,22a1.2,1.2,0,0,1-1.17,1.16H36.53A1.14,1.14,0,0,1,35.37,22a1.2,1.2,0,0,1,1.16-1.17H49.21A1.21,1.21,0,0,1,50.38,22Z" style="fill:#fb8500"/><path d="M47.42,30.46a1.2,1.2,0,0,1-1.16,1.17H36.53a1.14,1.14,0,0,1-1.16-1.17,1.19,1.19,0,0,1,1.16-1.16h9.73A1.19,1.19,0,0,1,47.42,30.46Z" style="fill:#fb8500"/><path d="M36.22,38.93a1.19,1.19,0,0,1-1.17,1.16h-26a1.17,1.17,0,1,1,0-2.33h26A1.2,1.2,0,0,1,36.22,38.93Z" style="fill:#fb8500"/><path d="M28.76,55.79A1.2,1.2,0,0,1,27.59,57H9.08a1.17,1.17,0,1,1,0-2.33H27.59A1.15,1.15,0,0,1,28.76,55.79Z" style="fill:#fb8500"/><path d="M32.64,47.32a1.2,1.2,0,0,1-1.16,1.17H9.08a1.21,1.21,0,0,1-1.17-1.17,1.19,1.19,0,0,1,1.17-1.16H31.56A1.11,1.11,0,0,1,32.64,47.32Z" style="fill:#fb8500"/><rect x="7.91" y="20.82" width="22.4" height="10.81" rx="1.17" style="fill:#219ebc"/><polygon points="62.98 32.25 62.93 32.3 57.31 37.89 44.24 50.89 39.96 46.69 57.22 29.45 58.7 27.97 62.98 32.25" style="fill:#fff8f0"/></svg>