<svg xmlns="http://www.w3.org/2000/svg" viewBox="0 0 63.05 66.81"><path d="M53.9,5.88V26.07a5.77,5.77,0,0,1-5.77,5.77H16.4a5.77,5.77,0,0,1-5.77-5.77V5.88A5.77,5.77,0,0,1,16.4.11H48.13A5.77,5.77,0,0,1,53.9,5.88Z" style="fill:#219ebc"/><path d="M38.81,52.31h-.09a9.88,9.88,0,0,1-11.72,0l-.09,0a8.57,8.57,0,0,0-5.6,7L20.74,65a1.68,1.68,0,0,0,1.66,1.84H43.31A1.67,1.67,0,0,0,45,65l-.56-5.58A8.55,8.55,0,0,0,38.81,52.31Z" style="fill:#fb8500"/><path d="M25.64,44.32a7.23,7.23,0,1,0,7.23-7.25A7.23,7.23,0,0,0,25.64,44.32Z" style="fill:#fb8500"/><path d="M21.63,51.32a8.56,8.56,0,0,0-3.55-2.43l-.09,0a9.88,9.88,0,0,1-11.73,0l-.08,0a8.57,8.57,0,0,0-5.6,7L0,61.54a1.69,1.69,0,0,0,1.66,1.85H16.88l.47-4.51A11.1,11.1,0,0,1,21.63,51.32Z" style="fill:#fb8500"/><path d="M12.12,48.14a7.25,7.25,0,1,0-7.23-7.25A7.24,7.24,0,0,0,12.12,48.14Z" style="fill:#fb8500"/><path d="M56.88,48.89l-.09,0a9.86,9.86,0,0,1-11.72,0l-.08,0a8.39,8.39,0,0,0-3.55,2.44A11.17,11.17,0,0,1,45.73,59l.44,4.43H61.38A1.67,1.67,0,0,0,63,61.56L62.48,56A8.54,8.54,0,0,0,56.88,48.89Z" style="fill:#fb8500"/><path d="M43.7,40.89a7.23,7.23,0,1,0,7.23-7.24A7.23,7.23,0,0,0,43.7,40.89Z" style="fill:#fb8500"/><path d="M37.47,52.15l-.08,0a9.86,9.86,0,0,1-11.73,0l-.09,0a8.53,8.53,0,0,0-5.59,7l-.58,5.61a1.67,1.67,0,0,0,1.66,1.83H42a1.66,1.66,0,0,0,1.65-1.83l-.55-5.58A8.53,8.53,0,0,0,37.47,52.15Z" style="fill:#219ebc"/><path d="M24.3,44.15a7.24,7.24,0,1,0,7.24-7.24A7.24,7.24,0,0,0,24.3,44.15Z" style="fill:#219ebc"/><path d="M44.78,0H17.62a7.41,7.41,0,0,0-7.41,7.41V24.69a7.41,7.41,0,0,0,7.41,7.41h10.6l2.1,2.11a1.24,1.24,0,0,0,1.75,0l2.11-2.11h10.6a7.41,7.41,0,0,0,7.4-7.41V7.41A7.41,7.41,0,0,0,44.78,0Zm4.93,24.69a4.94,4.94,0,0,1-4.93,4.94H33.66a1.24,1.24,0,0,0-.87.36l-1.59,1.6L29.6,30a1.24,1.24,0,0,0-.87-.36H17.62a4.94,4.94,0,0,1-4.94-4.94V7.41a4.94,4.94,0,0,1,4.94-4.94H44.78a4.94,4.94,0,0,1,4.93,4.94Z" style="fill:#fb8500"/><path d="M49.71,7.41V24.69a4.94,4.94,0,0,1-4.93,4.94H33.66a1.24,1.24,0,0,0-.87.36l-1.59,1.6L29.6,30a1.24,1.24,0,0,0-.87-.36H17.62a4.94,4.94,0,0,1-4.94-4.94V7.41a4.94,4.94,0,0,1,4.94-4.94H44.78A4.94,4.94,0,0,1,49.71,7.41Z" style="fill:#fff8f0"/><path d="M41.07,13.58c0,2.43-1.6,5-4.75,7.73a33.79,33.79,0,0,1-4.51,3.22,1.26,1.26,0,0,1-1.23,0,33.79,33.79,0,0,1-4.51-3.22c-3.15-2.7-4.75-5.3-4.75-7.73A6.18,6.18,0,0,1,31.2,8.64a6.17,6.17,0,0,1,9.87,4.94Z" style="fill:#219ebc"/></svg>