<svg xmlns="http://www.w3.org/2000/svg" viewBox="0 0 74 52"><path d="M61.14,8h-54a4.54,4.54,0,0,0-4.48,4.59V47.41A4.54,4.54,0,0,0,7.11,52h54a4.54,4.54,0,0,0,4.49-4.59V12.59A4.54,4.54,0,0,0,61.14,8Z" style="fill:#219ebc"/><rect y="8" width="63" height="43" rx="4.49" style="fill:#fff8f0"/><path d="M4.72,52H59a4.48,4.48,0,0,0,4.48-4.35L35.08,27.15a5.47,5.47,0,0,0-6.38,0L.24,47.66A4.48,4.48,0,0,0,4.72,52Z" style="fill:#fb8500"/><path d="M59,8H4.72A4.49,4.49,0,0,0,.24,12.35l28.44,20.5a5.47,5.47,0,0,0,6.38,0L63.52,12.34A4.48,4.48,0,0,0,59,8Z" style="fill:#219ebc"/><circle cx="62" cy="12" r="12" transform="translate(-0.48 2.82) rotate(-2.6)" style="fill:#fb8500"/></svg>