<svg xmlns="http://www.w3.org/2000/svg" viewBox="0 0 62 62"><circle cx="31" cy="31" r="31" transform="translate(-12.52 25.74) rotate(-38.11)" style="fill:#fb8500"/><circle cx="31" cy="31" r="21" transform="translate(-9.5 47.78) rotate(-67.5)" style="fill:#fff8f0"/><path d="M30.57,10.25a20.22,20.22,0,0,0-2.71.2,21,21,0,0,1,0,41.65,22,22,0,0,0,2.71.19,21,21,0,0,0,0-42Z" style="fill:#219ebc"/><path d="M28.21,39.22a12.67,12.67,0,0,1-3.38-.41,6.85,6.85,0,0,1-2.44-1.18,4.72,4.72,0,0,1-1.47-2A6.2,6.2,0,0,1,20.53,33L23,32.41A3.93,3.93,0,0,0,23.45,35a3.86,3.86,0,0,0,1.89,1.5,8.1,8.1,0,0,0,3,.5,8.22,8.22,0,0,0,2.77-.41,3.92,3.92,0,0,0,1.73-1.12,2.5,2.5,0,0,0,.6-1.65,2.12,2.12,0,0,0-.68-1.64,4.66,4.66,0,0,0-1.83-1c-.77-.23-1.61-.43-2.53-.61s-1.82-.43-2.7-.68a12.55,12.55,0,0,1-2.43-1,4.21,4.21,0,0,1-2.37-4.06A5,5,0,0,1,21.76,22,5.65,5.65,0,0,1,24.2,20a9.2,9.2,0,0,1,3.71-.69,10.21,10.21,0,0,1,3.81.66,6,6,0,0,1,2.62,2,5.32,5.32,0,0,1,1,3.21l-2.52.57a4.54,4.54,0,0,0-.35-1.82,3.36,3.36,0,0,0-1-1.32,4.41,4.41,0,0,0-1.58-.78,7.5,7.5,0,0,0-2-.25,6.34,6.34,0,0,0-2.3.39A3.52,3.52,0,0,0,24,23.05a2.62,2.62,0,0,0-.55,1.65,2.21,2.21,0,0,0,.79,1.8,5.73,5.73,0,0,0,2.1,1c.87.25,1.8.48,2.78.68s1.66.39,2.47.63a10.08,10.08,0,0,1,2.22.94,4.54,4.54,0,0,1,1.61,1.56,4.61,4.61,0,0,1,.6,2.45,4.76,4.76,0,0,1-.89,2.85,5.63,5.63,0,0,1-2.61,1.9A12,12,0,0,1,28.21,39.22Zm-1-19.44-.57-4.08h2.91l-.6,4.08ZM26.62,43l.57-4H29l.57,4Z" style="fill:#fb8500"/></svg>