<svg xmlns="http://www.w3.org/2000/svg" viewBox="0 0 55.75 63.23"><path d="M38.76,55.37a.51.51,0,0,0,0,.17m.05-.22H17m21.73,0h.84s.76,0,.76,0l.19,0a.64.64,0,0,0,.18-.06l.17-.08a.93.93,0,0,0,.15-.13.88.88,0,0,0,.12-.15l.1-.17a1.21,1.21,0,0,0,0-.18.71.71,0,0,0,0-.2v-4a.71.71,0,0,0,0-.2,1.21,1.21,0,0,0,0-.18l-.1-.17a.81.81,0,0,0-.12-.14.93.93,0,0,0-.15-.13.91.91,0,0,0-.17-.09,1.27,1.27,0,0,0-.18-.06h-1.2l3.27-9.22a2.3,2.3,0,0,0,.15-.93,2.72,2.72,0,0,0-.19-.94L30.93,10a.59.59,0,0,0-.1-.17,1.1,1.1,0,0,0-.16-.15.66.66,0,0,0-.19-.09l-.21,0h-.6a.52.52,0,0,0-.21,0l-.17.11a.76.76,0,0,0-.12.19.65.65,0,0,0,0,.2V32.42a.5.5,0,0,0,.1.28.4.4,0,0,0,.24.16,5.41,5.41,0,0,1,.87.34,5,5,0,0,1,.8.49,5.12,5.12,0,0,1,.71.6,5.87,5.87,0,0,1,.6.72,6,6,0,0,1,.48.81,6.49,6.49,0,0,1,.33.87,5.73,5.73,0,0,1,.17.92,4.82,4.82,0,0,1,0,.93,5.79,5.79,0,0,1-5.36,5.28h-.51a4.7,4.7,0,0,1-.51-.06l-.49-.09-.49-.13-.47-.19c-.15-.07-.31-.14-.45-.22a5.08,5.08,0,0,1-.43-.27l-.41-.29a3.06,3.06,0,0,1-.37-.35,4,4,0,0,1-.35-.36c-.11-.13-.21-.27-.31-.41L23,41a4.92,4.92,0,0,1-.24-.45c-.07-.16-.14-.32-.19-.47s-.1-.32-.15-.48a4.91,4.91,0,0,1-.1-.5,4.53,4.53,0,0,1-.06-.5c0-.17,0-.33,0-.51l0-.5c0-.17.05-.34.08-.5s.07-.33.13-.5a3.27,3.27,0,0,1,.16-.47c.06-.16.13-.31.2-.46a3.91,3.91,0,0,1,.26-.44c.08-.14.18-.28.28-.42s.22-.26.32-.38a4.08,4.08,0,0,1,.36-.36c.13-.12.25-.22.39-.33l.41-.29.44-.24a4.84,4.84,0,0,1,.47-.21l.48-.17a.47.47,0,0,0,.24-.16.49.49,0,0,0,.09-.28V10.1a.45.45,0,0,0,0-.2.55.55,0,0,0-.12-.19.71.71,0,0,0-.17-.11.46.46,0,0,0-.21,0h-.59a.71.71,0,0,0-.4.12.57.57,0,0,0-.16.15.62.62,0,0,0-.11.17L13.18,38.26a2.51,2.51,0,0,0-.2.94,2.49,2.49,0,0,0,.15.93l3.28,9.22h-1.2a.76.76,0,0,0-.18.06,1,1,0,0,0-.18.09l-.15.13-.12.14a1.4,1.4,0,0,0-.09.17l-.06.18a1.5,1.5,0,0,0,0,.2v4a1.5,1.5,0,0,0,0,.2l.06.18a1.4,1.4,0,0,0,.09.17l.12.15.15.13.18.08a.48.48,0,0,0,.18.06l.19,0H17l21.73,0" style="fill:#fb8500"/><path d="M40.43,50.33v4a.09.09,0,0,1,0,.06h-25a.07.07,0,0,1,0-.06v-4s0,0,0,0l.05,0h25l0,0A.05.05,0,0,1,40.43,50.33Z" style="fill:#cbf3f0"/><path d="M38.78,55.32l0,0a.51.51,0,0,0,0,.17v7.18a.09.09,0,0,1,0,.05.06.06,0,0,1-.05,0H17.11s0,0-.06,0l0-.05v-7.4Z" style="fill:#fff8f0;stroke:#fb8500;stroke-miterlimit:10;stroke-width:0.8749165534973145px"/><path d="M19.44,4.51c-.5.2-1,.42-1.46.66s-.95.5-1.42.77-.91.57-1.35.87-.87.63-1.28,1-.83.69-1.22,1-.77.75-1.13,1.15-.71.8-1.05,1.22-.65.85-.95,1.29-.59.89-.86,1.36-.53.93-.76,1.42-.46,1-.66,1.46-.38,1-.54,1.52-.31,1-.44,1.55-.23,1-.32,1.57-.16,1.06-.21,1.6S5.71,24,5.7,24.57H3.84l-.2,0-.18.06a.56.56,0,0,0-.17.09.61.61,0,0,0-.15.12L3,25l-.09.17a1.33,1.33,0,0,0,0,.19.62.62,0,0,0,0,.19v4.63a.62.62,0,0,0,0,.19,1.05,1.05,0,0,0,0,.19l.09.17.13.15a.44.44,0,0,0,.15.12.56.56,0,0,0,.17.09l.18.06.2,0H8.47l.19,0,.18-.06A.76.76,0,0,0,9,31a.79.79,0,0,0,.15-.12l.12-.15.09-.17.06-.19a1.23,1.23,0,0,0,0-.19V25.56a1.23,1.23,0,0,0,0-.19l-.06-.19L9.29,25l-.12-.15L9,24.74a.76.76,0,0,0-.18-.09l-.18-.06-.19,0H6.61c0-.51,0-1,.09-1.54s.12-1,.2-1.52.19-1,.31-1.51.26-1,.42-1.49.33-1,.53-1.45.4-.94.62-1.4.47-.92.73-1.36.54-.88.83-1.3.59-.84.91-1.24.66-.79,1-1.17S13,9.85,13.34,9.5s.77-.69,1.17-1,.81-.63,1.23-.93S16.59,7,17,6.73s.9-.51,1.36-.74.92-.44,1.4-.64a.36.36,0,0,0,.15-.1.71.71,0,0,0,.1-.14.57.57,0,0,0,0-.18.47.47,0,0,0,0-.17.4.4,0,0,0-.1-.15.31.31,0,0,0-.15-.1.33.33,0,0,0-.17,0A.39.39,0,0,0,19.44,4.51Zm-11,21a.06.06,0,0,1,0,0,.08.08,0,0,1,0,0v4.63a.08.08,0,0,1,0,0,.06.06,0,0,1,0,0H3.84s0,0,0,0a.05.05,0,0,1,0,0V25.56a.05.05,0,0,1,0,0s0,0,0,0Z" style="fill:#219ebc"/><path d="M52.45,0a3.81,3.81,0,0,0-.59.05,4,4,0,0,0-.57.16,3.71,3.71,0,0,0-.53.26,3.21,3.21,0,0,0-.48.34,3.35,3.35,0,0,0-.41.43,3.17,3.17,0,0,0-.32.49,2.61,2.61,0,0,0-.24.54,2.86,2.86,0,0,0-.13.58h-18V1a1.23,1.23,0,0,0,0-.19A.6.6,0,0,0,31.1.61.56.56,0,0,0,31,.44a.79.79,0,0,0-.12-.15.79.79,0,0,0-.15-.12.56.56,0,0,0-.17-.09A.6.6,0,0,0,30.38,0l-.19,0H25.56l-.19,0a.7.7,0,0,0-.19.06A.7.7,0,0,0,25,.17a.79.79,0,0,0-.15.12l-.12.15a.56.56,0,0,0-.09.17.6.6,0,0,0-.06.19,1.23,1.23,0,0,0,0,.19V2.85h-18a2.71,2.71,0,0,0-.09-.41,3,3,0,0,0-.13-.39,2.53,2.53,0,0,0-.18-.37C6.11,1.56,6,1.44,6,1.33L5.69,1A2.7,2.7,0,0,0,5.38.74,2,2,0,0,0,5.05.5,2.64,2.64,0,0,0,4.68.3,2.5,2.5,0,0,0,4.3.15L3.9.05a2.85,2.85,0,0,0-.41,0H3.07l-.4,0a2.62,2.62,0,0,0-.4.11,2.62,2.62,0,0,0-.39.15l-.36.2a4.08,4.08,0,0,0-.33.25,2,2,0,0,0-.3.28,2.6,2.6,0,0,0-.26.32,1.86,1.86,0,0,0-.22.35,2.53,2.53,0,0,0-.18.37c-.05.13-.09.26-.13.4a2.79,2.79,0,0,0-.07.4A2.93,2.93,0,0,0,0,3.3a3,3,0,0,0,0,.42,2.79,2.79,0,0,0,.07.4c0,.14.08.27.13.4a3.14,3.14,0,0,0,.18.37,1.86,1.86,0,0,0,.22.35,2.6,2.6,0,0,0,.26.32,2.68,2.68,0,0,0,.3.28,4.08,4.08,0,0,0,.33.25l.36.2a2.62,2.62,0,0,0,.39.15l.4.11.4,0a2.94,2.94,0,0,0,.42,0,1.92,1.92,0,0,0,.41,0,2.88,2.88,0,0,0,.4-.09l.38-.15c.13-.06.25-.13.37-.2a2,2,0,0,0,.33-.24l.31-.28L6,5.28c.08-.11.15-.23.22-.35a2.53,2.53,0,0,0,.18-.37,3,3,0,0,0,.13-.39,3,3,0,0,0,.09-.41h18V5.62a1.23,1.23,0,0,0,0,.19.6.6,0,0,0,.06.19.7.7,0,0,0,.09.17l.12.15.15.12a1.08,1.08,0,0,0,.36.15l.19,0h4.63l.19,0a.6.6,0,0,0,.19-.06.56.56,0,0,0,.17-.09l.15-.12A.79.79,0,0,0,31,6.17.7.7,0,0,0,31.1,6a.6.6,0,0,0,.06-.19,1.23,1.23,0,0,0,0-.19V4a21.31,21.31,0,0,1,18,20.55H47.29l-.19,0a.6.6,0,0,0-.19.06.56.56,0,0,0-.17.09.61.61,0,0,0-.15.12l-.13.15-.09.17a1.33,1.33,0,0,0,0,.19.62.62,0,0,0,0,.19v4.63a.62.62,0,0,0,0,.19,1.05,1.05,0,0,0,0,.19l.09.17.13.15a.44.44,0,0,0,.15.12.56.56,0,0,0,.17.09.6.6,0,0,0,.19.06l.19,0h4.63l.19,0,.18-.06.18-.09a.79.79,0,0,0,.15-.12l.12-.15a.91.91,0,0,0,.09-.17l.06-.19a1.23,1.23,0,0,0,0-.19V25.56a1.23,1.23,0,0,0,0-.19,1.08,1.08,0,0,0-.15-.36l-.12-.15a1.58,1.58,0,0,0-.15-.12l-.18-.09-.18-.06-.19,0H50.05c0-.58,0-1.16-.1-1.74s-.14-1.16-.24-1.73-.23-1.15-.38-1.71-.32-1.12-.51-1.67-.41-1.1-.64-1.63-.49-1.06-.77-1.57-.57-1-.89-1.51-.65-1-1-1.43-.72-.91-1.11-1.34-.8-.86-1.22-1.26-.86-.79-1.31-1.16S41,7.1,40.48,6.77s-1-.64-1.47-.93S38,5.27,37.46,5s-1.06-.48-1.61-.69-1.09-.4-1.65-.57h15a3.18,3.18,0,0,0,.14.61,4.29,4.29,0,0,0,.26.58,4.67,4.67,0,0,0,.36.51,3.84,3.84,0,0,0,.46.44,3.2,3.2,0,0,0,.53.34,3.69,3.69,0,0,0,.58.23,3.46,3.46,0,0,0,1.86,0,3.7,3.7,0,0,0,1.12-.57,3.73,3.73,0,0,0,.45-.44A3.68,3.68,0,0,0,55.31,5a3.68,3.68,0,0,0,.26-.57,3.2,3.2,0,0,0,.15-.61,3.33,3.33,0,0,0,0-.63,3.2,3.2,0,0,0-.09-.62,3.29,3.29,0,0,0-.21-.6,2.9,2.9,0,0,0-.31-.54,3.72,3.72,0,0,0-.41-.48,3.57,3.57,0,0,0-.49-.38A3.32,3.32,0,0,0,53.07.06,3.18,3.18,0,0,0,52.45,0ZM3.31,5.69h0A3.4,3.4,0,0,0,4.13,3.3,3.38,3.38,0,0,0,3.29.92h0a2.38,2.38,0,0,1,.46,0,2.35,2.35,0,0,1,.45.14,2.32,2.32,0,0,1,.41.22,2,2,0,0,1,.36.3,2.6,2.6,0,0,1,.3.36,2.32,2.32,0,0,1,.22.41,2.35,2.35,0,0,1,.14.45,2.38,2.38,0,0,1,0,.46,2.42,2.42,0,0,1,0,.47,2.59,2.59,0,0,1-.14.45,2.32,2.32,0,0,1-.22.41,2.59,2.59,0,0,1-.66.66,2.32,2.32,0,0,1-.41.22,2.35,2.35,0,0,1-.45.14A2.38,2.38,0,0,1,3.31,5.69Zm27-.07a.05.05,0,0,1,0,0s0,0,0,0H25.56s0,0,0,0a.08.08,0,0,1,0,0V1a.08.08,0,0,1,0-.05s0,0,0,0h4.63s0,0,0,0a.05.05,0,0,1,0,.05ZM51.92,25.49a.06.06,0,0,1,0,0,.08.08,0,0,1,0,0v4.63a.08.08,0,0,1,0,0,.06.06,0,0,1,0,0H47.29s0,0,0,0a.05.05,0,0,1,0,0V25.56a.05.05,0,0,1,0,0s0,0,0,0Zm.53-19.8h0a3.4,3.4,0,0,0,.84-2.39A3.38,3.38,0,0,0,52.43.92h0a2.38,2.38,0,0,1,.46,0,2.15,2.15,0,0,1,.45.14,2.41,2.41,0,0,1,.42.22,2,2,0,0,1,.36.3,2,2,0,0,1,.29.36,2.32,2.32,0,0,1,.22.41,2.35,2.35,0,0,1,.14.45,2.4,2.4,0,0,1,.05.46,2.42,2.42,0,0,1-.05.47,2.59,2.59,0,0,1-.14.45,2.32,2.32,0,0,1-.22.41,2,2,0,0,1-.29.36,2.6,2.6,0,0,1-.36.3,2.41,2.41,0,0,1-.42.22,2.15,2.15,0,0,1-.45.14A2.38,2.38,0,0,1,52.45,5.69Z" style="fill:#219ebc"/><path d="M29.46,9.6h2.41S44.12,37.26,44.05,38.72s-3.32,10.7-3.32,10.7H38.07s4.37-9.83,4.15-10.7S29.46,9.6,29.46,9.6Z" style="fill:#219ebc"/><path d="M4.48,3.39c0,1.32-.8,2.3-1.42,2.3A2.4,2.4,0,1,1,3.06.9C3.68.9,4.48,2.07,4.48,3.39Z" style="fill:#fb8500"/><path d="M53.85,3.39c0,1.32-.81,2.3-1.43,2.3a2.4,2.4,0,0,1,0-4.79C53,.9,53.85,2.07,53.85,3.39Z" style="fill:#fb8500"/></svg>