<svg xmlns="http://www.w3.org/2000/svg" viewBox="0 0 76.6 76.62"><rect x="18.91" y="45.77" width="17.91" height="6.98" transform="translate(42.99 -5.28) rotate(45)" style="fill:#219ebc"/><path d="M2.86,50.32a21.5,21.5,0,0,1,18.88-9.53L39.59,18.65C11.07,13.73,5.2,34.6,0,47.45Z" style="fill:#219ebc"/><path d="M26.3,73.76a21.5,21.5,0,0,0,9.53-18.88L58,37C62.89,65.55,42,71.42,29.17,76.62Z" style="fill:#219ebc"/><path d="M35.81,54.86c41.52-8,41-49.16,40.75-54.79l0,0h0V0l0,0C70.91-.22,29.71-.72,21.74,40.79Z" style="fill:#fff8f0"/><path d="M76.56.07l0,0h0V0l0,0c-.68,0-1.88-.07-3.48,0-.26,11.62-4.27,44.3-40.78,51.3l3.54,3.54C77.33,46.9,76.82,5.7,76.56.07Z" style="fill:#fb8500"/><path d="M72.29,25.51A65.4,65.4,0,0,0,76.56.07l0,0h0V0l0,0A65.06,65.06,0,0,0,51.1,4.31Z" style="fill:#219ebc"/><circle cx="51.19" cy="25.79" r="10.5" style="fill:#219ebc"/><path d="M56.29,30.84a6.8,6.8,0,1,1,0-9.62A6.81,6.81,0,0,1,56.29,30.84Z" style="fill:#fff"/><path d="M56.29,21.22a8.07,8.07,0,0,0-.71-.62,6.8,6.8,0,0,1-9.53,9.53,8.07,8.07,0,0,0,.62.71,6.8,6.8,0,1,0,9.62-9.62Z" style="fill:#fff"/><path d="M23,64.51c-7.5,7.49-15.93,5.1-15.93,5.1s-2.62-8.22,5.09-15.94c3.77-3.76,9.25-4.39,12.24-1.4S26.75,60.74,23,64.51Z" style="fill:#219ebc"/><path d="M19.23,62.67a8.26,8.26,0,0,1-7.71,2.47A8,8,0,0,1,14,57.42c1.83-1.83,4.48-2.13,5.93-.68S21.06,60.84,19.23,62.67Z" style="fill:#fff"/></svg>