<svg xmlns="http://www.w3.org/2000/svg" viewBox="0 0 86.38 85.71"><path d="M65.19,14.64A11.21,11.21,0,1,0,76.38,25.85,11.2,11.2,0,0,0,65.19,14.64Z" style="fill:#219ebc"/><path d="M31.56,27.52a11.21,11.21,0,1,0,11.2,11.2A11.21,11.21,0,0,0,31.56,27.52Z" style="fill:#fb8500"/><path d="M57.46,75.73v10H32.26c.43-10-2.94-17,10.68-15.68-7.68-2.11-6-13.82,1.92-13.74,7.89-.21,9.57,11.78,1.92,13.74C51.26,69.91,57.36,69.25,57.46,75.73Z" style="fill:#219ebc"/><path d="M56,75.14v10H30.76c.43-10-2.94-17,10.68-15.68-7.68-2.1-6-13.81,1.92-13.74,7.89-.21,9.57,11.79,1.92,13.74C49.76,69.32,55.86,68.67,56,75.14Z" style="fill:#fb8500"/><path d="M42.83,70l.11,0C29.31,68.7,32.69,75.78,32.26,85.71H32V70C32.07,70,42.76,69.94,42.83,70Z" style="fill:none"/><path d="M57.48,70V85.71h0c-.44-10,2.93-17-10.68-15.68C46.91,69.88,57.31,70,57.48,70Z" style="fill:none"/><path d="M44.49,35.32a18.26,18.26,0,0,1,16.9,18.17h2.8a21.07,21.07,0,0,0-19.5-21Z" style="fill:#219ebc"/><path d="M22.68,49a21.1,21.1,0,0,0-.49,4.5H25a18.78,18.78,0,0,1,.42-3.9Z" style="fill:#219ebc"/><path d="M71.89,36a33.61,33.61,0,0,1,4.89,17.48h2.8a36.41,36.41,0,0,0-5.3-18.94Z" style="fill:#fb8500"/><path d="M6.8,53.49H9.6A33.59,33.59,0,0,1,51.25,20.85l.67-2.72A36.4,36.4,0,0,0,6.8,53.49Z" style="fill:#fb8500"/><path d="M43.19,3.06A50.18,50.18,0,0,0,27.35,5.61l.89,2.66a47.18,47.18,0,0,1,15-2.41A47.87,47.87,0,0,1,84,28.94l2.4-1.44A50.69,50.69,0,0,0,43.19,3.06Z" style="fill:#219ebc"/><path d="M6.48,23.17,4.32,21.39A49.93,49.93,0,0,0,0,27.5l2.4,1.44A48.11,48.11,0,0,1,6.48,23.17Z" style="fill:#219ebc"/><path d="M67,74.5H81a1.4,1.4,0,0,0,1.4-1.4v-14a1.4,1.4,0,0,0-1.4-1.4H67a1.4,1.4,0,0,0-1.4,1.4v4.2l-8.4,5.61h8.4v4.2A1.4,1.4,0,0,0,67,74.5Z" style="fill:#219ebc"/><path d="M18,57.69H4a1.4,1.4,0,0,0-1.4,1.4v14A1.4,1.4,0,0,0,4,74.5H18a1.41,1.41,0,0,0,1.41-1.4V68.9h8.39L19.4,63.29v-4.2A1.41,1.41,0,0,0,18,57.69Z" style="fill:#219ebc"/><path d="M64.19,14.27a11.21,11.21,0,1,0,11.19,11.2A11.2,11.2,0,0,0,64.19,14.27Z" style="fill:#fff8f0"/><path d="M71.17,32.35a9.79,9.79,0,0,1-14,0,5.59,5.59,0,0,1,5.59-5.47h2.8A5.59,5.59,0,0,1,71.17,32.35Z" style="fill:#219ebc"/><path d="M68.39,22.09a4.2,4.2,0,1,1-4.2-4.21A4.2,4.2,0,0,1,68.39,22.09Z" style="fill:#219ebc"/><path d="M43.19,38.08A11.2,11.2,0,1,0,32,49.29,11.19,11.19,0,0,0,43.19,38.08Z" style="fill:#fff8f0"/><path d="M35.18,36A3.19,3.19,0,1,1,32,32.83,3.19,3.19,0,0,1,35.18,36Z" style="fill:#fb8500"/><path d="M38,45.18a8.46,8.46,0,0,1-12.09,0,4.84,4.84,0,0,1,4.83-4.73H33.2A4.84,4.84,0,0,1,38,45.18Z" style="fill:#fb8500"/><path d="M15.81.64A11.21,11.21,0,1,0,27,11.85,11.21,11.21,0,0,0,15.81.64Z" style="fill:#fb8500"/><path d="M27.44,11.21a11.2,11.2,0,1,0-11.2,11.2A11.2,11.2,0,0,0,27.44,11.21Z" style="fill:#fff8f0"/><path d="M19.43,9.14A3.19,3.19,0,1,1,16.24,6,3.18,3.18,0,0,1,19.43,9.14Z" style="fill:#fb8500"/><path d="M22.29,18.3a8.46,8.46,0,0,1-12.09,0A4.84,4.84,0,0,1,15,13.57h2.42A4.84,4.84,0,0,1,22.29,18.3Z" style="fill:#fb8500"/><path d="M4.46,59.1H17.21a1.21,1.21,0,0,1,1.21,1.21V62a1.21,1.21,0,0,1-1.21,1.21H4.67A1.21,1.21,0,0,1,3.46,62V60.1A1,1,0,0,1,4.46,59.1Z" style="fill:#cbf3f0;opacity:0.75"/><path d="M4.46,63.85H16.62a1.81,1.81,0,0,1,1.81,1.81V71.2A1.81,1.81,0,0,1,16.62,73H5.27A1.81,1.81,0,0,1,3.46,71.2V64.85A1,1,0,0,1,4.46,63.85Z" style="fill:#cbf3f0;opacity:0.75"/><path d="M67.21,59.1H80a1.21,1.21,0,0,1,1.21,1.21V62A1.21,1.21,0,0,1,80,63.23H67.42A1.21,1.21,0,0,1,66.21,62V60.1A1,1,0,0,1,67.21,59.1Z" style="fill:#cbf3f0;opacity:0.75"/><path d="M67.21,63.85H79.37a1.81,1.81,0,0,1,1.81,1.81V71.2A1.81,1.81,0,0,1,79.37,73H68a1.81,1.81,0,0,1-1.81-1.81V64.85A1,1,0,0,1,67.21,63.85Z" style="fill:#cbf3f0;opacity:0.75"/></svg>