<svg xmlns="http://www.w3.org/2000/svg" viewBox="0 0 65.95 55.28"><path d="M56.87,3V42.19a.88.88,0,0,1-1,.94H7a1,1,0,0,1-.94-1V1A1,1,0,0,1,7,0H54.13A2.88,2.88,0,0,1,56.87,3Z" style="fill:#219ebc"/><path d="M52.47,0H3A3,3,0,0,0,0,3V40.14a3,3,0,0,0,3,3s49.81,0,51.37,0c.82-.05,1.1-.46,1.1-1V3A3,3,0,0,0,52.47,0Zm-2,41.08H5.05a3,3,0,0,1-3-3v-33a3,3,0,0,1,3-3H50.42a3,3,0,0,1,3,3v33A3,3,0,0,1,50.42,41.08Z" style="fill:#fb8500"/><rect x="2.05" y="2.06" width="51.37" height="39.02" rx="3" style="fill:#fff8f0"/><path d="M29.79,32.86H18.3a3.07,3.07,0,0,0-5.79,0H7.19a1,1,0,1,0,0,2.06h5.32a3.07,3.07,0,0,0,5.79,0H29.79a1,1,0,0,0,0-2.06ZM15.41,34.92a1,1,0,1,1,1-1A1,1,0,0,1,15.41,34.92Z" style="fill:#219ebc"/><path d="M37.21,17.46a3.06,3.06,0,0,1-1.44,2.61L25.25,26.64a3,3,0,0,1-1.62.47,3,3,0,0,1-1.5-.39A3.05,3.05,0,0,1,20.54,24V10.89a3.08,3.08,0,0,1,4.71-2.61l10.52,6.57A3,3,0,0,1,37.21,17.46Z" style="fill:#219ebc"/><path d="M65,50.12l.21.52A.72.72,0,0,0,65,50.12Z" style="fill:#cbf3f0"/><path d="M65.94,50.53,65.87,49,47.77,34.43,47.68,37,53,55.28l4.4-6.57,4.53,4.53a1.45,1.45,0,0,0,2,0l1.57-1.57a1.48,1.48,0,0,0,.43-1A.45.45,0,0,0,65.94,50.53ZM65,50.12a.72.72,0,0,1,.21.52Z" style="fill:#cbf3f0"/><path d="M64.49,49.64l.05,1L62.9,52.24l-4.52-4.51a1.42,1.42,0,0,0-1-.44l-.15,0a1.43,1.43,0,0,0-1.07.63L53.46,52,48.73,36.22Z" style="fill:#cbf3f0"/><path d="M65.24,50.64,65,50.12A.72.72,0,0,1,65.24,50.64Z" style="fill:#cbf3f0"/><path d="M60.5,44.54a.71.71,0,0,1-.21-.6.77.77,0,0,1,.32-.55l5.31-3.51L47.77,34.43l5.45,18.15,3.51-5.31a.77.77,0,0,1,.55-.32.71.71,0,0,1,.6.21l4.52,4.52a.74.74,0,0,0,1.05,0L65,50.11a.74.74,0,0,0,0-1Z" style="fill:#219ebc"/><path d="M41.68,27.29a.74.74,0,1,0-1,1.05l2.1,2.1a.7.7,0,0,0,.52.22.74.74,0,0,0,.53-.22.76.76,0,0,0,0-1.05Z" style="fill:#fb8500"/><path d="M51.12,30.66a.79.79,0,0,0,.53-.22l2.09-2.1a.74.74,0,0,0,0-1.05.73.73,0,0,0-1,0l-2.1,2.1a.74.74,0,0,0,0,1.05A.7.7,0,0,0,51.12,30.66Z" style="fill:#fb8500"/><path d="M42.73,37.26l-2.1,2.1a.74.74,0,0,0,0,1,.76.76,0,0,0,.52.22.79.79,0,0,0,.53-.22l2.1-2.1a.76.76,0,0,0,0-1.05A.74.74,0,0,0,42.73,37.26Z" style="fill:#fb8500"/><path d="M42.37,33.85a.75.75,0,0,0-.75-.74h-3a.74.74,0,0,0,0,1.48h3A.74.74,0,0,0,42.37,33.85Z" style="fill:#fb8500"/><path d="M47.93,25.32a.74.74,0,1,0-1.48,0v3a.74.74,0,1,0,1.48,0Z" style="fill:#fb8500"/></svg>