<svg xmlns="http://www.w3.org/2000/svg" viewBox="0 0 70.81 70.96"><circle cx="49.31" cy="21.5" r="21.5" style="fill:#219ebc"/><circle cx="48.81" cy="22" r="15" style="fill:#fff8f0"/><path d="M63.79,21.85,35.16,16.72a14.73,14.73,0,0,1,3.37-5.21l.47-.45h0l23.16,4.15A14.77,14.77,0,0,1,63.79,21.85Z" style="fill:#cbf3f0"/><path d="M59.46,32.43l0,0L35.56,28.19a14.8,14.8,0,0,1-1.24-8.07L63.4,25.33A14.71,14.71,0,0,1,59.46,32.43Z" style="fill:#cbf3f0"/><path d="M25.34,33.28H40.72a0,0,0,0,1,0,0v5.86a3.44,3.44,0,0,1-3.44,3.44H28.78a3.44,3.44,0,0,1-3.44-3.44V33.28a0,0,0,0,1,0,0Z" transform="translate(36.5 -12.25) rotate(45)" style="fill:#219ebc"/><rect x="19.3" y="38.77" width="9.07" height="16.73" transform="translate(40.31 -3.05) rotate(45)" style="fill:#fb8500"/><rect x="5.74" y="45.03" width="14.88" height="25.5" rx="2.65" transform="translate(44.72 7.61) rotate(45)" style="fill:#219ebc"/><path d="M25.58,52.16,22.93,49.5a2.66,2.66,0,0,1,0,3.75L8.64,67.53a2.63,2.63,0,0,1-3.74,0l2.65,2.66a2.66,2.66,0,0,0,3.75,0L25.58,55.9A2.63,2.63,0,0,0,25.58,52.16Z" style="fill:#cbf3f0"/></svg>