<svg xmlns="http://www.w3.org/2000/svg" viewBox="0 0 62.12 52.28"><path d="M60.14,36.2a6.39,6.39,0,0,1-.08,8.45s2.3,6.58-6.07,6.58H33.74s-3,0-4.21-.84h0a6.23,6.23,0,0,0-5.22-1.16H5V24.38l6.91.15a20.74,20.74,0,0,0,14.8-5.81c3.84-3.73,8.23-9,10.44-15.34A5,5,0,0,1,40.89.08a4.84,4.84,0,0,1,5.73,4.73,4.89,4.89,0,0,1-.08.85,70.43,70.43,0,0,0-.83,7.68c-.13,2.21,1.63,4.89,3.83,4.89h6.82a5.41,5.41,0,0,1,5.49,5.55A4.33,4.33,0,0,1,60.29,27,6.57,6.57,0,0,1,60.14,36.2Z" style="fill:#fb8500"/><path d="M33.7,48.23a7.78,7.78,0,0,1-2.51-.34,9.61,9.61,0,0,0-5.51-1.84,8.21,8.21,0,0,0-1.71.18H8V27.45l3.85.08h.46A23.53,23.53,0,0,0,28.8,20.87C34.23,15.6,38,10.05,40,4.38A2,2,0,0,1,41.41,3a2.31,2.31,0,0,1,.37,0,1.83,1.83,0,0,1,1.84,1.81,2.3,2.3,0,0,1,0,.34,72.35,72.35,0,0,0-.86,8,8.3,8.3,0,0,0,2.23,6,6.35,6.35,0,0,0,4.59,2.1h6.82a2.59,2.59,0,0,1,1.88.8,2.14,2.14,0,0,1,.62,1.6,1.4,1.4,0,0,1-.53,1.09l-2.43,2.1,2.26,2.28c.63.68,1.93,2.6-.28,5.13l-1.75,2,1.79,2a3.29,3.29,0,0,1-.17,4.52L56.66,44l.57,1.61a2.52,2.52,0,0,1-.09,1.78c-.29.39-1.27.81-3.15.81Z" style="fill:#fff8f0"/><path d="M59.79,45.23c-.79,1.11-2.37,2-5.39,2l-21,0a7.61,7.61,0,0,1-4.29-1.39,8.88,8.88,0,0,0-5-1.56H5v5H24.34a8.83,8.83,0,0,1,5.17,1.62,7.32,7.32,0,0,0,4.26,1.38L54,52.28c8.56,0,6.79-6.36,6.58-7.05Z" style="fill:#219ebc"/><rect y="23.23" width="16" height="28" rx="2.03" style="fill:#219ebc"/><path d="M14,44.23H2a2,2,0,0,1-2-2v6a2,2,0,0,0,2,2H14a2,2,0,0,0,2-2v-6A2,2,0,0,1,14,44.23Z" style="fill:#fff8f0"/></svg>