<svg xmlns="http://www.w3.org/2000/svg" viewBox="0 0 64.99 79.09"><path d="M38.81,64.59h-.09a9.88,9.88,0,0,1-11.72,0l-.09,0a8.57,8.57,0,0,0-5.6,7l-.57,5.61a1.68,1.68,0,0,0,1.66,1.84H43.31A1.67,1.67,0,0,0,45,77.25l-.56-5.58A8.55,8.55,0,0,0,38.81,64.59Z" style="fill:#fb8500"/><path d="M25.64,56.59a7.23,7.23,0,1,0,7.23-7.24A7.23,7.23,0,0,0,25.64,56.59Z" style="fill:#fb8500"/><path d="M55.65,44.47a26.46,26.46,0,0,0-2.37-26.2l-2.21,2.21a23.38,23.38,0,0,1,1.69,23A9.41,9.41,0,0,1,55.65,44.47Z" style="fill:#219ebc"/><path d="M55.15,43.12c-.33-.14-.66-.26-1-.37a24.41,24.41,0,0,0-1.81-22.14l.77-.77a25.46,25.46,0,0,1,2,23.28Z" style="fill:#cbf3f0"/><path d="M35.84,47.51a9.79,9.79,0,0,1,2.93,2.18,17.79,17.79,0,0,0,10.6-16.26A17.61,17.61,0,0,0,47,24.56l-2.26,2.27a14.53,14.53,0,0,1,1.57,6.6A14.73,14.73,0,0,1,35.84,47.51Z" style="fill:#219ebc"/><path d="M39,48.49a9.16,9.16,0,0,0-.89-.76,15.83,15.83,0,0,0,9.21-14.3A15.47,15.47,0,0,0,45.94,27l.8-.81A16.76,16.76,0,0,1,39,48.49Z" style="fill:#cbf3f0"/><path d="M64.94,6a1.52,1.52,0,0,0-1.1-1.09L60.91,4.1l-.78-2.95A1.55,1.55,0,0,0,59,.05a1.53,1.53,0,0,0-1.48.4L51.9,6.12a1.52,1.52,0,0,0-.4,1.47l.78,3L49.2,13.64A26.45,26.45,0,0,0,7.56,44.38a9.27,9.27,0,0,1,2.91-1A23.37,23.37,0,0,1,47,15.83l-4,4A17.75,17.75,0,1,0,24.36,49.63a9.74,9.74,0,0,1,2.93-2.15,14.71,14.71,0,0,1,4.34-28.75A14.54,14.54,0,0,1,40.85,22l-4,4a8.94,8.94,0,0,0-5.21-1.67,9.06,9.06,0,1,0,9,9.05,8.78,8.78,0,0,0-.29-2.25L37.55,34a6,6,0,1,1-5.94-6.55,5.88,5.88,0,0,1,3,.81l-4.07,4.09A1.53,1.53,0,0,0,31.61,35a1.55,1.55,0,0,0,1.09-.45L54.44,12.73l3,.79a1.81,1.81,0,0,0,.39.05,1.58,1.58,0,0,0,1.09-.45l5.65-5.67A1.52,1.52,0,0,0,64.94,6Z" style="fill:#fb8500"/><path d="M24.15,48.43A16.76,16.76,0,1,1,42.38,20.6l.71.6,5.38-5.43-.8-.7A24.39,24.39,0,0,0,9.06,42.69c-.33.1-.66.22-1,.35a25.15,25.15,0,0,1-1.89-9.62,25.42,25.42,0,0,1,42.35-19l.71.63,4.16-4.17-.93-3.51a.53.53,0,0,1,.14-.52l5.65-5.66A.55.55,0,0,1,58.64,1l.15,0a.54.54,0,0,1,.37.39l.93,3.5,3.5.94a.51.51,0,0,1,.38.37.53.53,0,0,1-.15.52l-5.66,5.67a.55.55,0,0,1-.38.16l-.14,0-3.5-.94L32,33.81a.58.58,0,0,1-.38.15.52.52,0,0,1-.38-.15.57.57,0,0,1-.16-.38.52.52,0,0,1,.16-.37l5-5-1.13-.65a7,7,0,1,0,3.42,7.07l1.15-1.15v.12a8,8,0,1,1-8-8,7.87,7.87,0,0,1,4.62,1.48l.7.5,5.39-5.42-.85-.7A15.65,15.65,0,0,0,16,33.43,15.85,15.85,0,0,0,25,47.68,10.39,10.39,0,0,0,24.15,48.43Z" style="fill:#fff8f0"/><path d="M21.63,63.59a8.63,8.63,0,0,0-3.55-2.42l-.09,0a9.88,9.88,0,0,1-11.73,0l-.08,0a8.57,8.57,0,0,0-5.6,7L0,73.82a1.68,1.68,0,0,0,1.66,1.84H16.88l.47-4.51A11.14,11.14,0,0,1,21.63,63.59Z" style="fill:#fb8500"/><path d="M12.12,60.41a7.24,7.24,0,1,0-7.23-7.24A7.24,7.24,0,0,0,12.12,60.41Z" style="fill:#fb8500"/><path d="M56.88,61.17l-.09,0a9.86,9.86,0,0,1-11.72,0l-.08,0a8.31,8.31,0,0,0-3.55,2.44,11.17,11.17,0,0,1,4.29,7.63l.44,4.43H61.38A1.67,1.67,0,0,0,63,73.84l-.56-5.59A8.54,8.54,0,0,0,56.88,61.17Z" style="fill:#fb8500"/><path d="M43.7,53.17a7.23,7.23,0,1,0,7.23-7.24A7.23,7.23,0,0,0,43.7,53.17Z" style="fill:#fb8500"/><path d="M37.47,64.43l-.08,0a9.9,9.9,0,0,1-11.73,0l-.09,0a8.55,8.55,0,0,0-5.59,7l-.58,5.6a1.68,1.68,0,0,0,1.66,1.84H42a1.66,1.66,0,0,0,1.65-1.84l-.55-5.58A8.53,8.53,0,0,0,37.47,64.43Z" style="fill:#219ebc"/><path d="M24.3,56.43a7.24,7.24,0,1,0,7.24-7.25A7.24,7.24,0,0,0,24.3,56.43Z" style="fill:#219ebc"/></svg>