<svg xmlns="http://www.w3.org/2000/svg" viewBox="0 0 61 53.54"><path d="M56.12,15H19.88A4.87,4.87,0,0,0,15,19.88V52.94a.61.61,0,0,0,1,.43l5.75-5.78A5.36,5.36,0,0,1,25.6,46H56.12A4.87,4.87,0,0,0,61,41.12V19.88A4.87,4.87,0,0,0,56.12,15Z" style="fill:#219ebc"/><path d="M5,0H43a5,5,0,0,1,5,5V39.18a.62.62,0,0,1-1,.44l-6.05-6A5.54,5.54,0,0,0,37,32H5a5,5,0,0,1-5-5V5A5,5,0,0,1,5,0Z" style="fill:#fb8500"/><path d="M5,0H43a5,5,0,0,1,5,5V39.18a.62.62,0,0,1-1,.44l-6.05-6A5.54,5.54,0,0,0,37,32H5a5,5,0,0,1-5-5V5A5,5,0,0,1,5,0Z" style="fill:#fb8500"/><path d="M48,5a5,5,0,0,0-5-5H39.77A5.12,5.12,0,0,1,45,5V37.72l2,1.87a.61.61,0,0,0,1-.44Z" style="fill:#fff8f0"/><path d="M37,7H11.72a1.5,1.5,0,0,0-1.5,1.5h0a1.5,1.5,0,0,0,1.5,1.5H37a1.5,1.5,0,0,0,1.5-1.5h0A1.5,1.5,0,0,0,37,7Z" style="fill:#fff8f0"/><path d="M37,22H11.72a1.5,1.5,0,0,0-1.5,1.5h0a1.5,1.5,0,0,0,1.5,1.5H37a1.5,1.5,0,0,0,1.5-1.5h0A1.5,1.5,0,0,0,37,22Z" style="fill:#fff8f0"/><path d="M37,14H11.72a1.5,1.5,0,0,0-1.5,1.5h0a1.5,1.5,0,0,0,1.5,1.5H37a1.5,1.5,0,0,0,1.5-1.5h0A1.5,1.5,0,0,0,37,14Z" style="fill:#fff8f0"/></svg>