<svg xmlns="http://www.w3.org/2000/svg" xmlns:xlink="http://www.w3.org/1999/xlink" viewBox="0 0 97.2 64.16"><defs><clipPath id="a" transform="translate(-0.08)"><rect y="3.68" width="93.92" height="60.47" style="fill:none"/></clipPath><clipPath id="b" transform="translate(-0.08)"><rect x="2.34" width="95.06" height="61.49" style="fill:none"/></clipPath><clipPath id="c" transform="translate(-0.08)"><rect x="2.34" width="95.06" height="11.86" style="fill:none"/></clipPath></defs><g style="clip-path:url(#a)"><path d="M86.63,3.76H7.2a7,7,0,0,0-3.39.87l-.3.17A6.87,6.87,0,0,0,2.17,5.86a5.57,5.57,0,0,0-.46.51A7,7,0,0,0,.64,8.13c0,.1-.09.21-.13.32s-.15.44-.21.67a7.53,7.53,0,0,0-.22,1.77V57a8.05,8.05,0,0,0,.14,1.39,5.63,5.63,0,0,0,.17.68c.07.22.14.44.23.66s.19.42.3.63.23.4.36.6.27.38.42.56.3.35.47.52a6,6,0,0,0,.52.47,5.75,5.75,0,0,0,.56.41,6,6,0,0,0,.6.36,6.09,6.09,0,0,0,.63.3,6.42,6.42,0,0,0,.66.24c.22.07.45.12.68.17s.45.08.69.1.46,0,.69,0H86.63c.24,0,.47,0,.7,0s.46-.06.69-.1.46-.1.68-.17.44-.15.66-.24.43-.19.63-.3.41-.23.6-.35.38-.27.56-.42.36-.31.52-.47.32-.34.47-.52.29-.37.42-.56.25-.4.36-.6.21-.42.3-.63.16-.44.23-.66a5.63,5.63,0,0,0,.17-.68A8.05,8.05,0,0,0,93.76,57V10.89a5.58,5.58,0,0,0,0-.7,5.46,5.46,0,0,0-.1-.69c-.05-.23-.1-.45-.17-.68s-.15-.44-.23-.66-.19-.42-.3-.63-.23-.4-.36-.6-.27-.38-.42-.56-.3-.35-.47-.52-.34-.32-.52-.47A5.75,5.75,0,0,0,90.59,5a6,6,0,0,0-.6-.36c-.2-.11-.42-.21-.63-.3s-.44-.17-.66-.24S88.25,4,88,3.9s-.46-.08-.69-.1S86.87,3.76,86.63,3.76Z" transform="translate(-0.08)" style="fill:#fb8500"/></g><path d="M10.59.5H89.31c.25,0,.49,0,.74,0s.48.06.72.11.48.11.71.18a5.13,5.13,0,0,1,.69.25,5.79,5.79,0,0,1,.67.31c.21.12.42.24.63.38s.4.28.59.43a6.39,6.39,0,0,1,.54.5,6.28,6.28,0,0,1,.49.54c.16.19.3.39.44.59a6.58,6.58,0,0,1,.38.63c.11.22.22.44.31.66s.18.46.25.69.13.47.18.72.08.48.1.72a6,6,0,0,1,0,.73V53.41a6,6,0,0,1,0,.73c0,.25-.06.49-.1.73s-.11.48-.18.71-.16.46-.25.69a6.67,6.67,0,0,1-.31.66,6.58,6.58,0,0,1-.38.63,6.46,6.46,0,0,1-.44.59c-.15.19-.32.37-.49.55s-.35.33-.54.49l-.59.44c-.21.13-.42.26-.63.37s-.44.22-.67.32a7,7,0,0,1-.69.24,4.35,4.35,0,0,1-.71.18,6,6,0,0,1-.72.11,6.12,6.12,0,0,1-.74,0H10.59a6.12,6.12,0,0,1-.74,0,6,6,0,0,1-.72-.11,4.35,4.35,0,0,1-.71-.18,7,7,0,0,1-.69-.24c-.23-.1-.45-.2-.67-.32s-.42-.24-.63-.37l-.59-.44c-.18-.16-.37-.32-.54-.49s-.34-.36-.49-.55A6.68,6.68,0,0,1,4,56.93a5,5,0,0,1-.32-.66c-.09-.23-.18-.46-.25-.69a5.65,5.65,0,0,1-.17-.71,5.84,5.84,0,0,1-.11-.73,6,6,0,0,1,0-.73V8a6,6,0,0,1,0-.73,6,6,0,0,1,.11-.72,5.8,5.8,0,0,1,.17-.72c.07-.23.16-.46.25-.69A6.65,6.65,0,0,1,4,4.45a6.5,6.5,0,0,1,.37-.63c.14-.2.28-.4.44-.59a6.28,6.28,0,0,1,.49-.54c.17-.18.36-.34.54-.5s.39-.3.59-.43.42-.26.63-.38a5.79,5.79,0,0,1,.67-.31A5.13,5.13,0,0,1,8.42.82c.23-.07.47-.13.71-.18s.48-.08.72-.11S10.34.5,10.59.5Z" transform="translate(-0.08)" style="fill:#fff8f0"/><g style="clip-path:url(#b)"><path d="M89.66,61.38H10.24l-.75,0c-.25,0-.5-.06-.74-.11s-.49-.11-.73-.18-.47-.16-.7-.26a6,6,0,0,1-.68-.32A6,6,0,0,1,6,60.1c-.21-.14-.4-.29-.6-.45a6.52,6.52,0,0,1-.55-.5,6.37,6.37,0,0,1-.5-.55q-.24-.3-.45-.6c-.14-.21-.27-.43-.39-.65s-.22-.44-.31-.67S3,56.21,2.94,56s-.13-.48-.18-.72-.08-.49-.11-.74,0-.5,0-.75V7.62c0-.24,0-.49,0-.74s.06-.5.11-.74.11-.49.18-.73.16-.47.26-.7.2-.46.31-.68.25-.43.39-.64a6.7,6.7,0,0,1,.45-.6,5.17,5.17,0,0,1,.5-.55,6.64,6.64,0,0,1,.55-.51c.2-.16.39-.3.6-.44S6.42,1,6.64.9s.45-.22.68-.32S7.78.4,8,.33,8.5.2,8.75.15A6,6,0,0,1,9.49,0a6.28,6.28,0,0,1,.75,0H89.66a8,8,0,0,1,1.49.15c.24.05.49.11.72.18s.48.16.71.25.45.2.67.32.44.25.65.39.4.28.6.44.37.33.55.51a6.52,6.52,0,0,1,.5.55,6.7,6.7,0,0,1,.45.6,6,6,0,0,1,.38.64,6,6,0,0,1,.32.68c.1.23.18.46.26.7s.13.48.18.73.08.49.11.74,0,.5,0,.74V53.76q0,.38,0,.75c0,.25-.06.49-.11.74S97,55.74,97,56s-.16.48-.26.71a5.86,5.86,0,0,1-.32.67A6.11,6.11,0,0,1,96,58q-.21.3-.45.6c-.16.19-.32.37-.5.55s-.36.34-.55.5l-.6.45a6.11,6.11,0,0,1-.65.38,5.86,5.86,0,0,1-.67.32c-.23.1-.47.18-.71.26s-.48.13-.72.18-.49.08-.74.11ZM10.24,1C10,1,9.8,1,9.59,1s-.43.05-.65.09l-.63.16L7.7,1.5l-.59.28a6.16,6.16,0,0,0-.55.33c-.18.13-.36.25-.53.39s-.33.29-.48.44-.3.31-.44.48-.26.34-.38.52-.23.37-.34.56-.19.39-.28.59-.15.4-.22.61-.11.42-.15.63a4.63,4.63,0,0,0-.1.65c0,.21,0,.43,0,.64V53.76c0,.22,0,.43,0,.65a4.49,4.49,0,0,0,.1.64,5.81,5.81,0,0,0,.15.63c.07.21.14.42.22.62s.18.39.28.58.22.38.34.56.25.36.38.52.29.33.44.49a6.42,6.42,0,0,0,.48.43,6.55,6.55,0,0,0,.53.39l.55.34a6.28,6.28,0,0,0,.59.27,5,5,0,0,0,.61.22,4.85,4.85,0,0,0,.63.16c.22,0,.43.08.65.1s.43,0,.65,0H89.66c.22,0,.44,0,.65,0s.43-.06.65-.1a4.85,4.85,0,0,0,.63-.16,5,5,0,0,0,.61-.22c.2-.08.39-.17.59-.27l.55-.34a6.55,6.55,0,0,0,.53-.39c.16-.13.32-.28.48-.43s.3-.32.43-.49a5,5,0,0,0,.39-.52c.12-.18.23-.36.34-.56a6.11,6.11,0,0,0,.27-.58,4.57,4.57,0,0,0,.22-.62,4.15,4.15,0,0,0,.16-.63c0-.21.08-.42.1-.64s0-.43,0-.65V7.62c0-.21,0-.43,0-.64s-.06-.44-.1-.65A4.85,4.85,0,0,0,96,5.7a4.44,4.44,0,0,0-.22-.61,6.28,6.28,0,0,0-.27-.59c-.11-.19-.22-.38-.34-.56a6.41,6.41,0,0,0-.39-.52,4.91,4.91,0,0,0-.43-.48c-.16-.16-.32-.3-.48-.44a6.55,6.55,0,0,0-.53-.39,6.16,6.16,0,0,0-.55-.33c-.2-.1-.39-.2-.59-.28s-.41-.16-.61-.22L91,1.12c-.22,0-.43-.07-.65-.09s-.43,0-.65,0Z" transform="translate(-0.08)" style="fill:#fb8500"/></g><path d="M96.79,11.15V7.62a5.32,5.32,0,0,0,0-.69,5.36,5.36,0,0,0-.1-.7,5.06,5.06,0,0,0-.17-.67,6.4,6.4,0,0,0-.23-.66c-.09-.22-.19-.43-.3-.64s-.23-.4-.36-.6-.27-.38-.42-.56-.3-.35-.47-.52-.34-.32-.52-.47-.36-.28-.56-.41a6,6,0,0,0-.6-.36,6.09,6.09,0,0,0-.63-.3Q92.06.9,91.73.8L91.05.63c-.23,0-.46-.08-.69-.1s-.46,0-.7,0H10.24c-.24,0-.47,0-.7,0s-.47.06-.69.1L8.17.8A6.42,6.42,0,0,0,7.51,1a6.09,6.09,0,0,0-.63.3,6,6,0,0,0-.6.36,5.84,5.84,0,0,0-.56.42,4.6,4.6,0,0,0-.52.47,5.68,5.68,0,0,0-.47.51,6,6,0,0,0-.42.57,6,6,0,0,0-.36.6,6.09,6.09,0,0,0-.3.63c-.08.21-.16.43-.23.66a5.48,5.48,0,0,0-.17.67,5.36,5.36,0,0,0-.1.7,5.32,5.32,0,0,0,0,.69v3.53Z" transform="translate(-0.08)" style="fill:#fb8500"/><g style="clip-path:url(#c)"><path d="M97.28,11.65H2.61v-4c0-.24,0-.49,0-.74s.06-.5.11-.74.11-.49.18-.73.16-.47.26-.7.2-.46.31-.68.25-.43.39-.64a6.7,6.7,0,0,1,.45-.6,5.17,5.17,0,0,1,.5-.55,6.64,6.64,0,0,1,.55-.51c.2-.16.39-.3.6-.44S6.42,1,6.64.9s.45-.22.68-.32S7.78.4,8,.33,8.5.2,8.75.15A6,6,0,0,1,9.49,0a6.28,6.28,0,0,1,.75,0H89.66a8,8,0,0,1,1.49.15c.24.05.49.11.72.18s.48.16.71.25.45.2.67.32.44.25.65.39.4.28.6.44.37.33.55.51a6.52,6.52,0,0,1,.5.55,6.7,6.7,0,0,1,.45.6,6,6,0,0,1,.38.64,6,6,0,0,1,.32.68c.1.23.18.46.26.7s.13.48.18.73.08.49.11.74,0,.5,0,.74Zm-93.67-1H96.29v-3c0-.21,0-.43,0-.64s-.06-.44-.1-.65A4.85,4.85,0,0,0,96,5.7a4.44,4.44,0,0,0-.22-.61,6.28,6.28,0,0,0-.27-.59c-.11-.19-.22-.38-.34-.56a6.41,6.41,0,0,0-.39-.52,4.91,4.91,0,0,0-.43-.48c-.16-.16-.32-.3-.48-.44a6.55,6.55,0,0,0-.53-.39,6.16,6.16,0,0,0-.55-.33c-.2-.1-.39-.2-.59-.28s-.41-.16-.61-.22L91,1.12c-.22,0-.43-.07-.65-.09s-.43,0-.65,0H10.24C10,1,9.8,1,9.59,1s-.43.05-.65.09l-.63.16L7.7,1.5l-.59.28a6.16,6.16,0,0,0-.55.33c-.18.13-.36.25-.53.39s-.33.29-.48.44-.3.31-.44.48-.26.34-.38.52-.23.37-.34.56-.19.39-.28.59-.15.4-.22.61-.11.42-.15.63a4.63,4.63,0,0,0-.1.65c0,.21,0,.43,0,.64Z" transform="translate(-0.08)" style="fill:#fb8500"/></g><path d="M76.61,8.05H72.25V3.68h4.36Zm-3.36-1h2.36V4.69H73.25Z" transform="translate(-0.08)" style="fill:#fff8f0"/><path d="M80.44,7.12h3.75v1H80.44Z" transform="translate(-0.08)" style="fill:#fff8f0"/><path d="M87.66,4.8l.7-.7,3.36,3.36-.7.71Z" transform="translate(-0.08)" style="fill:#fff8f0"/><path d="M87.67,7.47,91,4.11l.7.7L88.37,8.17Z" transform="translate(-0.08)" style="fill:#fff8f0"/><rect x="7.41" y="13.93" width="19.94" height="6.66" style="fill:#219ebc"/><rect x="6.64" y="22.85" width="21.49" height="5.49" rx="0.39" style="fill:#219ebc"/><rect x="7.41" y="30.66" width="19.94" height="3.95" style="fill:#219ebc"/><rect x="7.41" y="37.69" width="19.94" height="3.95" style="fill:#219ebc"/><rect x="7.41" y="44.72" width="19.94" height="3.95" style="fill:#219ebc"/><rect x="7.41" y="51.76" width="19.94" height="3.95" style="fill:#219ebc"/><rect x="38.83" y="20.78" width="43.8" height="3.42" rx="0.39" style="fill:#219ebc"/><path d="M43,17.26a.4.4,0,0,1,.39-.39H79a.39.39,0,1,1,0,.78H43.42A.4.4,0,0,1,43,17.26Z" transform="translate(-0.08)" style="fill:#219ebc"/><path d="M82.71,31.62a1.89,1.89,0,1,1-1.89-1.88A1.89,1.89,0,0,1,82.71,31.62Z" transform="translate(-0.08)" style="fill:#219ebc"/><path d="M74.53,31.62a1.88,1.88,0,1,1-1.88-1.88A1.89,1.89,0,0,1,74.53,31.62Z" transform="translate(-0.08)" style="fill:#219ebc"/><path d="M66.36,31.62a1.89,1.89,0,1,1-1.88-1.88A1.89,1.89,0,0,1,66.36,31.62Z" transform="translate(-0.08)" style="fill:#219ebc"/><path d="M58.19,31.62a1.89,1.89,0,1,1-1.89-1.88A1.89,1.89,0,0,1,58.19,31.62Z" transform="translate(-0.08)" style="fill:#219ebc"/><path d="M50,31.62a1.88,1.88,0,1,1-1.88-1.88A1.89,1.89,0,0,1,50,31.62Z" transform="translate(-0.08)" style="fill:#219ebc"/><circle cx="39.88" cy="31.62" r="1.88" style="fill:#219ebc"/><rect x="84.45" y="15.14" width="6.26" height="2.81" rx="0.39" style="fill:#219ebc"/><rect x="31.55" y="40.05" width="20.52" height="15.5" style="fill:#219ebc"/><rect x="56.81" y="40.05" width="20.52" height="15.5" style="fill:#219ebc"/><polygon points="91.83 55.55 81.13 55.55 81.13 40.05 91.84 40.05 91.84 55.55 91.83 55.55" style="fill:#219ebc"/></svg>