<svg xmlns="http://www.w3.org/2000/svg" xmlns:xlink="http://www.w3.org/1999/xlink" viewBox="0 0 98.99 121.75"><defs><clipPath id="a"><rect x="42.19" y="9.27" width="16.7" height="16.68" style="fill:none"/></clipPath><clipPath id="b"><rect x="41.56" y="90.52" width="17.96" height="20.81" style="fill:none"/></clipPath><clipPath id="c"><rect x="48.27" width="2.73" height="6.01" style="fill:#fc9d33"/></clipPath><clipPath id="d"><rect x="49.2" y="115.73" width="2.73" height="6.01" style="fill:#fc9d33"/></clipPath></defs><g style="clip-path:url(#a)"><path d="M50.45,9.28a8.19,8.19,0,1,0,8.19,8.18A8.19,8.19,0,0,0,50.45,9.28Z" style="fill:#cbf3f0;fill-rule:evenodd"/></g><rect x="83.77" y="50.52" width="15.22" height="15.44" style="fill:none"/><path d="M84,50.71H99V65.65H84Z" style="fill:#feebd6;fill-rule:evenodd"/><path d="M9.92,49.6,5,58.19,0,66.76H19.82l-5-8.57Z" style="fill:#feebd6;fill-rule:evenodd"/><g style="clip-path:url(#b)"><path d="M50.45,90.82,46,93.38,41.57,96V106.2L46,108.76l4.45,2.56,4.45-2.56,4.42-2.56V96L54.9,93.38Z" style="fill:#cbf3f0;fill-rule:evenodd"/></g><path d="M36.8,18.51a.91.91,0,1,1,.59,1.72A40.36,40.36,0,0,0,13.8,41.7.9.9,0,1,1,12.15,41,42.11,42.11,0,0,1,36.8,18.51ZM11.12,72.93a.9.9,0,0,1,1.69-.64,40.27,40.27,0,0,0,22.77,23.2.92.92,0,0,1,.5,1.18.87.87,0,0,1-1.18.5A41.84,41.84,0,0,1,11.12,72.93ZM66,97.17a.91.91,0,0,1-1.18-.5.93.93,0,0,1,.5-1.18,40.21,40.21,0,0,0,23-23.92.9.9,0,1,1,1.7.61,42,42,0,0,1-24,25Zm24.09-53a.89.89,0,0,1-.55,1.15.93.93,0,0,1-1.16-.54A40.22,40.22,0,0,0,63.53,20.23a.91.91,0,1,1,.59-1.72A41.89,41.89,0,0,1,80,28.39,42.34,42.34,0,0,1,90.07,44.2Z" style="fill:#219ebc"/><path d="M50.42,30.86a27,27,0,1,0,27,27A27,27,0,0,0,50.42,30.86Z" style="fill:#fb8500;fill-rule:evenodd"/><path d="M52,74.61V41.07a1.67,1.67,0,0,0-3.27,0V74.61a1.68,1.68,0,0,0,3.27,0Z" style="fill:#fff8f0;fill-rule:evenodd"/><path d="M40.8,73.56V41a1.69,1.69,0,0,0-3.27,0V73.56a1.69,1.69,0,0,0,3.27,0Z" style="fill:#fff8f0;fill-rule:evenodd"/><path d="M63.3,74.61V41.07a1.67,1.67,0,0,0-3.27,0V74.61a1.68,1.68,0,0,0,3.27,0Z" style="fill:#fff8f0;fill-rule:evenodd"/><path d="M43.43,65V61.27c0-5.23-8.53-5.23-8.53,0V65C34.9,70.19,43.43,70.19,43.43,65Z" style="fill:#219ebc;fill-rule:evenodd"/><path d="M54.69,54V50.32c0-5.24-8.53-5.24-8.53,0V54C46.13,59.23,54.69,59.23,54.69,54Z" style="fill:#219ebc;fill-rule:evenodd"/><path d="M65.93,65V61.27c0-5.23-8.53-5.23-8.53,0V65C57.4,70.19,65.93,70.19,65.93,65Z" style="fill:#219ebc;fill-rule:evenodd"/><path d="M39,4.27l2-1,2.63,5.1-2,1L39,4.27" style="fill:#fc9d33"/><path d="M55.38,8.33,58,3.23l2,1L57.4,9.37l-2-1" style="fill:#fc9d33"/><rect x="48.27" width="2.73" height="6.01" style="fill:#fc9d33"/><g style="clip-path:url(#c)"><path d="M48.3,6,48.45.22l2.27.06L50.58,6,48.3,6" style="fill:#fc9d33"/></g><path d="M61.2,117.47l-2,1-2.63-5.09,2-1,2.63,5.09" style="fill:#fc9d33"/><path d="M44.81,113.42l-2.63,5.09-2-1,2.63-5.09,2,1" style="fill:#fc9d33"/><rect x="49.2" y="115.73" width="2.73" height="6.01" style="fill:#fc9d33"/><g style="clip-path:url(#d)"><path d="M51.89,115.79l-.14,5.73-2.28,0,.14-5.74,2.28.06" style="fill:#fc9d33"/></g></svg>