<svg xmlns="http://www.w3.org/2000/svg" xmlns:xlink="http://www.w3.org/1999/xlink" viewBox="0 0 96.02 98.26"><defs><clipPath id="a"><rect x="39.77" y="7.53" width="56.25" height="61.26" style="fill:none"/></clipPath><clipPath id="b"><rect x="51.53" y="46.35" width="44.49" height="22.44" style="fill:none"/></clipPath><clipPath id="c"><rect x="5.1" width="28.51" height="16.93" style="fill:none"/></clipPath><clipPath id="d"><rect x="10.86" width="27.6" height="16.93" style="fill:none"/></clipPath><clipPath id="e"><rect x="16.05" y="92.44" width="2.47" height="5.82" style="fill:#fc9d33"/></clipPath><clipPath id="f"><rect x="80.61" width="2.73" height="6.01" style="fill:#2aa2bf"/></clipPath></defs><path d="M60.18,68l-.36-17.8c6.3-.07,14.51-1.41,21.59-2a7.35,7.35,0,0,1,.22-1.81,6.28,6.28,0,0,1,.65-1.56c1.07-1.63,3.93-2.26,5-.36l5.29,15.23-2.93,11.4a4.41,4.41,0,0,1-.58,1.31s-.94,1.53-1.84,2.87l-23.71,0h0A10.19,10.19,0,0,1,60.18,68" style="fill:#feebd6"/><path d="M89,82.34c0,.67-.69,1.21-1.57,1.22l-3.08,0-21.57.17c-.88,0-1.6-.53-1.6-1.19l-.09-6.21c0-.66.69-1.21,1.57-1.22L84.38,75l3,0a1.43,1.43,0,0,1,1.6,1.19l.09,6.2" style="fill:#cff4f1"/><path d="M89,82.34c0,.67-.69,1.21-1.57,1.22l-3.08,0V75l3,0a1.43,1.43,0,0,1,1.6,1.19l.09,6.2" style="fill:#fff8f0"/><path d="M91.69,98H63.39c9.55,0,17.91-5.22,22.53-14.53l5.56-.05L91.69,98" style="fill:#fb8500"/><path d="M85.91,83.51C81.3,92.82,72.93,98,63.39,98H59l-.21-14.32,27.12-.21" style="fill:#fc9d33"/><g style="clip-path:url(#a)"><path d="M50.87,54.4l6.27,14.26L93.89,52.52a3.56,3.56,0,0,0,1.83-4.69L79.82,11.69,65,18.19a.59.59,0,0,1-.77-.3.67.67,0,0,1,0-.31c.2-1.55.38-4.49-.65-6.36A7.17,7.17,0,1,0,55.29,21.6a.45.45,0,0,1,.3.55.45.45,0,0,1-.25.29L39.81,29.26l6.81,15.49a.45.45,0,0,0,.59.22.44.44,0,0,0,.25-.28,7.17,7.17,0,1,1,10.39,8.24c-1.87,1-4.81.85-6.37.65a.59.59,0,0,0-.66.51.65.65,0,0,0,0,.31" style="fill:#fc9d33"/></g><g style="clip-path:url(#b)"><path d="M51.65,56.17l5.49,12.49L93.89,52.52a3.56,3.56,0,0,0,1.83-4.69l-.62-1.41c-1.58.81-3.2,1.57-4.85,2.3a88.32,88.32,0,0,1-38.6,7.45" style="fill:#fb8500"/></g><path d="M77.76,63.9c.39-.82.85-1.73,1.39-2.67a9.46,9.46,0,0,1,4.2-3.77s-1.15-7-1.52-9.31a7.23,7.23,0,0,1,.87-4.73c1.12-1.74,4-2.47,5.1-.48l5.11,16L89.69,71" style="fill:#feebd6"/><path d="M36.81,32.3l.36,17.8c-6.3.07-14.51,1.41-21.59,2a7.35,7.35,0,0,1-.22,1.81,5.92,5.92,0,0,1-.65,1.56c-1.07,1.63-3.93,2.26-5,.36L4.43,40.58,7.36,29.19A4.35,4.35,0,0,1,8,27.87S8.88,26.35,9.78,25l23.71,0h0a10.19,10.19,0,0,1,3.32,7.31" style="fill:#feebd6"/><path d="M35.87,24l-.09-6.21c0-.66-.72-1.2-1.6-1.19l-24.65.2C8.65,16.77,8,17.31,8,18L8,24.18a1.45,1.45,0,0,0,1.61,1.19l24.65-.2A1.42,1.42,0,0,0,35.87,24" style="fill:#fffbf6"/><path d="M12.61,25.31H9.14A1.19,1.19,0,0,1,8,24.12V18.25a1.44,1.44,0,0,1,1.44-1.43h3.22v8.49h0" style="fill:#fff8f0"/><g style="clip-path:url(#c)"><path d="M5.3,0H33.6C24.05,0,15.69,7.5,11.08,16.81l-5.57,0L5.3,0" style="fill:#cbf3f0"/></g><g style="clip-path:url(#d)"><path d="M11.08,16.81C15.69,7.5,24.05,0,33.6,0H38l.21,16.59-27.12.22" style="fill:#cff4f1"/></g><path d="M3.05,48.62,36.81,33.89a2.1,2.1,0,0,1,2.75,1h0c1.56,3.41,4.59,10,5.85,12.77a.46.46,0,0,0,.58.22.4.4,0,0,0,.24-.28,7,7,0,0,1,8.61-4.73,6.92,6.92,0,0,1,4.79,4.53h0" style="fill:#177484"/><path d="M18.94,86.59a2.9,2.9,0,0,1-3.86-1.5L.3,51.38A3.58,3.58,0,0,1,2.05,46.7" style="fill:#177484"/><path d="M41.41,75.92c.16-2.07.41-3.32-.71-5-3.91-5.75-12.4-4.17-14.83.65a6.81,6.81,0,0,0-.36,5.31c.68,2,3,3.75,4.27,4.63L32.63,80c-1.28-.88-4.5-3.53-5.18-5.5-.61-1.75.48-4.1,1.32-5.75C31.2,63.88,38.58,63,42,69.06c1,1.83.59,3.92-.39,5.79l.4-.53" style="fill:#177484"/><path d="M61.07,44.47a7.2,7.2,0,0,1-3.3,8.38c-1.87,1-4.81.89-6.37.7a.58.58,0,0,0-.65.51.55.55,0,0,0,0,.31l5.62,12.54a2.53,2.53,0,0,1-1.28,3.35h0L42,76.14a.45.45,0,0,1-.59-.22.41.41,0,0,1,0-.39c1-1.92,1.42-4.07.38-6-3.42-6.21-10.82-5.32-13.27-.36a7.16,7.16,0,0,0-.35,5.45c.68,2,3,3.87,4.27,4.77a.57.57,0,0,1,.15.81.52.52,0,0,1-.24.2l-12.95,5.8a2,2,0,0,1-2.64-1L1.19,50.44A3.56,3.56,0,0,1,3,45.73l34.66-15.5a2.13,2.13,0,0,1,2.82,1.08h0c1.61,3.58,4.72,10.52,6,13.43a.44.44,0,0,0,.59.23.45.45,0,0,0,.25-.29,7.17,7.17,0,0,1,13.75-.21h0" style="fill:#2aa2bf"/><path d="M57.77,52.85c-1.87,1-4.81.89-6.37.7a.58.58,0,0,0-.65.51.55.55,0,0,0,0,.31l5.62,12.54a2.55,2.55,0,0,1-1.28,3.36L42,76.14a.45.45,0,0,1-.59-.22.43.43,0,0,1,.05-.45,4.64,4.64,0,0,0,1-4.43c-3-7.79-11.33-7.15-13.95-1.83a7.16,7.16,0,0,0-.35,5.45c.68,2,3,3.87,4.28,4.77a.58.58,0,0,1,.14.81.61.61,0,0,1-.24.21L19.41,86.24a2,2,0,0,1-2.64-1l-3-6.78c12.51-9.19,20.84-25.6,20.84-44.32,0-.84,0-1.67,0-2.5l3.12-1.4a2.14,2.14,0,0,1,2.82,1.07c1.61,3.59,4.71,10.53,6,13.44a.44.44,0,0,0,.59.23.48.48,0,0,0,.25-.29c.57-2.1,1.7-4,3.75-4.72,6.67-2.29,11.55,3.29,10.07,8.59a7.22,7.22,0,0,1-3.37,4.3" style="fill:#219ebc"/><path d="M19.23,36.42c-.39.82-.85,1.73-1.39,2.67a9.46,9.46,0,0,1-4.2,3.77s1.15,7,1.52,9.3a7.24,7.24,0,0,1-.87,4.74c-1.12,1.74-4,2.47-5.1.48l-5.11-16L7.3,29.33" style="fill:#feebd6"/><path d="M23.16,90.16l2-1,2.63,5.09-2,1-2.63-5.09" style="fill:#fc9d33"/><path d="M6.77,94.21,9.4,89.12l2,1L8.8,95.25l-2-1" style="fill:#fc9d33"/><rect x="16.05" y="92.44" width="2.47" height="5.82" style="fill:#fc9d33"/><g style="clip-path:url(#e)"><path d="M16.08,98.21l.15-5.73,2.27,0-.14,5.73-2.28-.05" style="fill:#fc9d33"/></g><path d="M71.34,4.27l2-1L76,8.33l-2,1-2.63-5.1" style="fill:#2aa2bf"/><path d="M87.73,8.33l2.63-5.1,2,1-2.63,5.1-2-1" style="fill:#2aa2bf"/><rect x="80.61" width="2.73" height="6.01" style="fill:#2aa2bf"/><g style="clip-path:url(#f)"><path d="M80.65,6,80.79.22l2.28.06L82.93,6,80.65,6" style="fill:#2aa2bf"/></g></svg>