<svg xmlns="http://www.w3.org/2000/svg" viewBox="0 0 95.3 79.69"><path d="M72.3,54.26A35.54,35.54,0,0,1,26.24,72.65" style="fill:#219ebc"/><path d="M4.33,39.84a35.5,35.5,0,0,1,62.57-23" style="fill:#219ebc"/><path d="M39.84,8.1A31.75,31.75,0,1,0,71.59,39.84,31.78,31.78,0,0,0,39.84,8.1Zm0,56.34a24.6,24.6,0,1,1,24.6-24.6A24.63,24.63,0,0,1,39.84,64.44Z" style="fill:#fb8500"/><path d="M65.64,69.44a39.2,39.2,0,0,1-51.46.11" style="fill:none;stroke:#fb8500;stroke-linecap:round;stroke-miterlimit:10;stroke-width:1.130254089832306px"/><path d="M71.74,17a39.08,39.08,0,0,1,7.38,22.89,39.81,39.81,0,0,1-.94,8.59" style="fill:none;stroke:#fb8500;stroke-linecap:round;stroke-miterlimit:10;stroke-width:1.130254089832306px"/><path d="M39.84.57A39.22,39.22,0,0,1,71.74,17" style="fill:none;stroke:#fb8500;stroke-linecap:round;stroke-miterlimit:10;stroke-width:1.130254089832306px"/><path d="M2.8,52.91A39.27,39.27,0,0,1,7.68,17.33" style="fill:none;stroke:#fb8500;stroke-linecap:round;stroke-miterlimit:10;stroke-width:1.130254089832306px"/><path d="M.75,19.62a39.25,39.25,0,0,1,8-10.57" style="fill:none;stroke:#fb8500;stroke-linecap:round;stroke-miterlimit:10;stroke-width:1.130254089832306px"/><path d="M82.35,43.18A39.25,39.25,0,0,1,78.91,56" style="fill:none;stroke:#fb8500;stroke-linecap:round;stroke-miterlimit:10;stroke-width:1.130254089832306px"/><path d="M16.24,77.25a39,39,0,0,1-9.06-9.67" style="fill:none;stroke:#fb8500;stroke-linecap:round;stroke-miterlimit:10;stroke-width:1.130254089832306px"/><path d="M13.7,63.2A21.07,21.07,0,0,1,6.39,52.14" style="fill:none;stroke:#219ebc;stroke-linecap:round;stroke-linejoin:round;stroke-width:2px"/><path d="M75,36A39.27,39.27,0,0,1,73.3,49.12" style="fill:none;stroke:#219ebc;stroke-linecap:round;stroke-linejoin:round;stroke-width:2px"/><path d="M39.84,8.1A31.75,31.75,0,1,0,71.59,39.84,31.78,31.78,0,0,0,39.84,8.1Zm0,56.34a24.6,24.6,0,1,1,24.6-24.6A24.63,24.63,0,0,1,39.84,64.44Z" style="fill:#fb8500"/><path d="M39.84,15.25a24.6,24.6,0,1,0,24.6,24.59A24.62,24.62,0,0,0,39.84,15.25Zm0,42A17.45,17.45,0,1,1,57.29,39.84,17.46,17.46,0,0,1,39.84,57.29Z" style="fill:#fff8f0"/><path d="M39.84,22.4A17.45,17.45,0,1,0,57.29,39.84,17.46,17.46,0,0,0,39.84,22.4Zm0,27.74a10.3,10.3,0,1,1,10.3-10.3A10.3,10.3,0,0,1,39.84,50.14Z" style="fill:#fb8500"/><circle cx="39.84" cy="39.84" r="10.3" transform="translate(-12.27 61.28) rotate(-67.36)" style="fill:#fff8f0"/><polygon points="86.94 22.89 42.61 37.55 43.56 40.45 87.89 25.8 86.94 22.89" style="fill:#219ebc"/><polygon points="86.84 22.93 70.86 28.17 74.2 20.03 90.18 14.78 86.84 22.93" style="fill:#219ebc"/><polygon points="79.09 18.42 75.75 26.57 81.21 24.78 84.55 16.63 79.09 18.42" style="fill:#fff8f0"/><polygon points="79.33 35.63 95.3 30.38 87.78 25.8 71.81 31.05 79.33 35.63" style="fill:#219ebc"/><polygon points="82.89 27.41 90.41 31.99 84.96 33.78 77.44 29.2 82.89 27.41" style="fill:#fff8f0"/><polygon points="41.76 31.27 34.33 41.83 46.57 45.93 41.76 31.27" style="fill:#219ebc"/></svg>