<svg xmlns="http://www.w3.org/2000/svg" xmlns:xlink="http://www.w3.org/1999/xlink" viewBox="0 0 61.59 98.18"><defs><clipPath id="a" transform="translate(0 -0.02)"><rect x="30.49" width="2.03" height="15.82" style="fill:none"/></clipPath></defs><path d="M59.94,64.81A21,21,0,0,0,49.43,65a18.09,18.09,0,0,0-5.51-5.15l-1.4-.72c-.22-.14-3.1,1-3.33.83L36,64l3,11.48A18.81,18.81,0,0,1,42.3,79a21,21,0,0,1,11.44.06A2.13,2.13,0,0,0,56.2,78l5.16-10.16A2.14,2.14,0,0,0,59.94,64.81Z" transform="translate(0 -0.02)" style="fill:#fc9929"/><path d="M42.37,62.22h0c-7.9.57-8.71,3.73-3.18,9.22a18,18,0,0,1,4.8,4.7c2.43-2.54,4.17-5.31,3.95-8.74A17.92,17.92,0,0,0,42.37,62.22Z" transform="translate(0 -0.02)" style="fill:#feeedb"/><path d="M58.68,67.31l-4.1,8.63a19.84,19.84,0,0,0-10.59.2l3.95-8.74A22.43,22.43,0,0,1,58.68,67.31Z" transform="translate(0 -0.02)" style="fill:#feebd6"/><path d="M42.58,67.05a6.3,6.3,0,0,0-.66,2.54v4.08a17.06,17.06,0,0,0-2.73-2.23V68.87c0-2.26,1.55-4.31,3.18-6.65h0a16.5,16.5,0,0,1,2.23,1.56A22.89,22.89,0,0,0,42.58,67.05Z" transform="translate(0 -0.02)" style="fill:#feebd6"/><path d="M53.43,72.55a12.18,12.18,0,0,0-5.55.11.45.45,0,0,0,.12.88h.11a11.57,11.57,0,0,1,5.15-.1.45.45,0,0,0,.53-.36A.44.44,0,0,0,53.43,72.55Z" transform="translate(0 -0.02)" style="fill:#fdb86b"/><path d="M54.77,69.27a12.47,12.47,0,0,0-5.55.11.45.45,0,0,0-.32.55.46.46,0,0,0,.44.34l.11,0a11.43,11.43,0,0,1,5.15-.09.45.45,0,0,0,.53-.36A.45.45,0,0,0,54.77,69.27Z" transform="translate(0 -0.02)" style="fill:#fdb86b"/><path d="M42.19,69.23c-.2-.15-.41-.29-.61-.42A.45.45,0,0,0,41,69a.45.45,0,0,0,.15.62q.27.16.54.36a6.8,6.8,0,0,1,1.42,1.46.44.44,0,0,0,.36.19.46.46,0,0,0,.37-.72A8.14,8.14,0,0,0,42.19,69.23Z" transform="translate(0 -0.02)" style="fill:#fdb86b"/><path d="M42.8,66.65l-.61-.31a.46.46,0,0,0-.6.22.45.45,0,0,0,.22.6l.55.28a6.58,6.58,0,0,1,2,1.71.46.46,0,0,0,.36.17.51.51,0,0,0,.28-.09.46.46,0,0,0,.07-.64A7.68,7.68,0,0,0,42.8,66.65Z" transform="translate(0 -0.02)" style="fill:#fdb86b"/><path d="M23.92,88,25,89.94l-4.93,2.87L19,90.91a10.37,10.37,0,0,1-5.19,0l-1.09,1.9L7.77,89.94,8.86,88a10.56,10.56,0,0,1-2.6-4.52H4.09V77.78H6.26a10.61,10.61,0,0,1,2.6-4.52l-1.09-1.9,4.93-2.87,1.09,1.9a10.12,10.12,0,0,1,2.6-.33,10,10,0,0,1,1.1.06c3.11.94,3.29,2.68,2.31,4.66a6.7,6.7,0,0,0-3.41-.93,6.8,6.8,0,1,0,5.12,11.23c1.62-1,2.83-.37,3.47,1.68A11.8,11.8,0,0,1,23.92,88Z" transform="translate(0 -0.02)" style="fill:#fdb86b"/><path d="M20.94,87.52a26.74,26.74,0,0,1,21.37,0A10.68,10.68,0,0,1,31.63,98.2a10.55,10.55,0,0,1-1.13-.06,10.68,10.68,0,0,1-9.56-10.62Z" transform="translate(0 -0.02)" style="fill:#219ebc"/><path d="M42.31,82.4v5.12H20.94V77.42l6.67-3.21,7.93-1,6.77,4.21Z" transform="translate(0 -0.02)" style="fill:#219ebc"/><path d="M37.18,51.89c3.06.52,3.83,8.12,1.71,17a42.66,42.66,0,0,1-3,8.55h-8.6a43.28,43.28,0,0,1-3-8.55C22.24,60,23,52.41,26.08,51.89c1.68-.28,3.71,1.64,5.55,4.89C33.46,53.53,35.49,51.61,37.18,51.89Z" transform="translate(0 -0.02)" style="fill:#feebd6"/><path d="M2.74,66.78a1.53,1.53,0,0,0,.53-1.07.72.72,0,0,1,.29-.49.75.75,0,0,1,1,.1l2.63,3.53,3.34-2.49a.76.76,0,0,0,0-1,.73.73,0,0,0-.49-.3,1.53,1.53,0,0,1-1.06-.53,1.23,1.23,0,0,1,.42-1.75,1.23,1.23,0,0,1,1.79.2,1.52,1.52,0,0,1,.14,1.18.7.7,0,0,0,.12.56.72.72,0,0,0,1,.2l3.46-2.57L13.16,58.7a.72.72,0,0,1,.17-1,.7.7,0,0,1,.56-.12,1.57,1.57,0,0,0,1.18-.15,1.22,1.22,0,0,0,.18-1.79,1.22,1.22,0,0,0-1.74-.41A1.53,1.53,0,0,0,13,56.29a.68.68,0,0,1-.3.49.72.72,0,0,1-1-.17l-2.86-4L0,59.13,3.09,63.3a.73.73,0,0,1-.17,1,.69.69,0,0,1-.57.12,1.54,1.54,0,0,0-1.18.16A1.22,1.22,0,0,0,1,66.37,1.22,1.22,0,0,0,2.74,66.78Z" transform="translate(0 -0.02)" style="fill:#fc9929"/><path d="M7.23,68.86h0L4.6,65.32a.74.74,0,0,0-1-.09.69.69,0,0,0-.3.49,1.53,1.53,0,0,1-.53,1.07h0A1.23,1.23,0,0,1,1,66.38a1.23,1.23,0,0,1,.18-1.8,1.53,1.53,0,0,1,1.19-.15.72.72,0,0,0,.72-1.13L0,59.13H0l8.8-6.55h0l2.86,4a.76.76,0,0,0,.47.29.7.7,0,0,0,.54-.13.68.68,0,0,0,.29-.48,1.53,1.53,0,0,1,.53-1.07,1.23,1.23,0,0,1,1.76.41,1.22,1.22,0,0,1-.18,1.79,1.49,1.49,0,0,1-1.19.15.72.72,0,0,0-.85.59.7.7,0,0,0,.13.54L16,62.37h0L12.48,65a.74.74,0,0,1-1-.21.7.7,0,0,1-.12-.56A1.51,1.51,0,0,0,11.25,63a1.15,1.15,0,0,0-.8-.48h-.12a1.5,1.5,0,0,0-.85.29,1.46,1.46,0,0,0-.61.82,1.1,1.1,0,0,0,.19.91,1.47,1.47,0,0,0,1,.53.75.75,0,0,1,.5.31.77.77,0,0,1,0,1ZM4.07,65.05h0a.63.63,0,0,1,.49.26l2.62,3.53,3.33-2.48a.75.75,0,0,0,0-1,.68.68,0,0,0-.49-.3A1.57,1.57,0,0,1,9,64.55a1.13,1.13,0,0,1-.18-.92,1.61,1.61,0,0,1,1.6-1.12,1.08,1.08,0,0,1,.8.48,1.58,1.58,0,0,1,.15,1.19.7.7,0,0,0,.11.56.72.72,0,0,0,1,.2l3.46-2.57-2.78-3.66a.76.76,0,0,1,.17-1,.73.73,0,0,1,.57-.12,1.55,1.55,0,0,0,1.18-.15,1.21,1.21,0,0,0,.18-1.77,1.21,1.21,0,0,0-1.74-.41A1.46,1.46,0,0,0,13,56.29a.77.77,0,0,1-.3.5.72.72,0,0,1-.55.12.73.73,0,0,1-.48-.3l-2.85-4L0,59.13,3.09,63.3a.73.73,0,0,1-.74,1.14,1.52,1.52,0,0,0-1.17.15A1.21,1.21,0,0,0,1,66.37a1.22,1.22,0,0,0,1.74.41,1.54,1.54,0,0,0,.52-1.07.7.7,0,0,1,.3-.49A.87.87,0,0,1,4.07,65.05Z" transform="translate(0 -0.02)" style="fill:#fc9929"/><path d="M45.86,52.49a.86.86,0,0,0,.29,1.2.84.84,0,0,0,.45.13.87.87,0,0,0,.75-.42,18.38,18.38,0,0,0-3.72-23.52.87.87,0,0,0-1.23.1.86.86,0,0,0,.09,1.23,16.67,16.67,0,0,1,3.37,21.28Z" transform="translate(0 -0.02)" style="fill:#219ebc"/><path d="M36.72,26.15a18.2,18.2,0,0,0-5.09-.72.88.88,0,0,0,0,1.76,16.49,16.49,0,0,1,4.6.64.77.77,0,0,0,.25,0,.88.88,0,0,0,.24-1.72Z" transform="translate(0 -0.02)" style="fill:#cbf3f0"/><g style="clip-path:url(#a)"><path d="M31.63,15.56a.87.87,0,0,0,.87-.87V.89a.88.88,0,0,0-1.75,0v13.8A.87.87,0,0,0,31.63,15.56Z" transform="translate(0 -0.02)" style="fill:#219ebc"/></g><path d="M11.27,4.78a.88.88,0,0,0-1.22-.21.87.87,0,0,0-.21,1.22l8,11.26a.88.88,0,0,0,.72.37.85.85,0,0,0,.5-.16A.87.87,0,0,0,19.23,16Z" transform="translate(0 -0.02)" style="fill:#219ebc"/><path d="M44.23,17.26a.86.86,0,0,0,.51.16.87.87,0,0,0,.71-.37l8-11.26a.88.88,0,1,0-1.43-1L44,16A.87.87,0,0,0,44.23,17.26Z" transform="translate(0 -0.02)" style="fill:#219ebc"/><path d="M31.63,20.29C18.22,20.29,7.57,31,7.57,45.87c0,9.11,5,15.41,8.89,21.06,2.06,3,3.81,5.8,4.33,8.74a10.25,10.25,0,0,1,.15,1.75H42.31c0-4.39,3-8.36,6.17-12.92,1-1.46,2.05-3,3-4.61a27,27,0,0,0,4.19-14C55.68,31,45,20.29,31.63,20.29Z" transform="translate(0 -0.02)" style="fill:#cff4f1;stroke:#219ebc;stroke-miterlimit:10;opacity:0.5"/></svg>