<svg xmlns="http://www.w3.org/2000/svg" viewBox="0 0 58.5 77.97"><rect x="9.84" y="71.79" width="13.26" height="6.17" style="fill:#fb8500"/><rect x="35.4" y="71.79" width="13.26" height="6.17" style="fill:#fb8500"/><path d="M35.7,63.67H48.53a20.8,20.8,0,0,1,1.4-2.38,52.37,52.37,0,0,0,4.38-8,47.93,47.93,0,0,0,2.37-9.05,38.1,38.1,0,0,1,.89-4c.68-2.15,1.61-11.82.19-16.12-.34-1-.83-1.9-1.64-1.85-2.83.18-1.76,8.17-2.68,11.56a74.34,74.34,0,0,1-5.38,13.42c-1.6,3.07-4.06,7.24-6,8.12a1.56,1.56,0,0,1-1.87-.26c-1.68-1.69-1.14-10.81-1.73-11.83a2.32,2.32,0,0,0-4,.13s0,1.6.06,3.54c0,2.71.09,6,0,7C34,58.61,35.45,59.53,35.7,63.67Z" style="fill:#feebd6"/><path d="M50.62,65.1H33.42v5.25H50.65V65.11S50.64,65.1,50.62,65.1Z" style="fill:#219ebc"/><path d="M10,63.67H22.8c.26-4.14,1.75-5.06,1.2-9.72-.12-1-.07-4.28,0-7,0-1.94.08-3.5.07-3.53a2.32,2.32,0,0,0-4-.14c-.6,1-.06,10.14-1.73,11.84-1,1-2.28.17-3.16-.7-2.78-2.74-6.1-9.68-7.84-14a61,61,0,0,1-2.25-6.56c-.92-3.39.14-11.38-2.68-11.56C.57,22.17.16,26.8.07,28.33A45.48,45.48,0,0,0,.94,40.25a36.25,36.25,0,0,1,.88,4,48.35,48.35,0,0,0,2.38,9,51.21,51.21,0,0,0,4.38,8A24.31,24.31,0,0,1,10,63.67Z" style="fill:#feebd6"/><path d="M25.06,65.1H7.86v5.25H25.09V65.11Z" style="fill:#219ebc"/><path d="M54.06,11.47l-.14,11.74c-1,1.61-1.1,4.31-1.22,6.87a23.29,23.29,0,0,1-.44,4.31A71.9,71.9,0,0,1,47,47.52a34.84,34.84,0,0,1-4,6.38L41.57,55H41.4c-1.16-1.17-.65-10.07-1.52-11.54a3.74,3.74,0,0,0-6.49.24,28.41,28.41,0,0,0-.07,4.17c0,.87,0,1.81,0,2.69h0c0,.49,0,.95,0,1.39,0,1.23,0,2.24-.06,2.71a14.15,14.15,0,0,0,.53,6.35l-2.06,1.54a3.83,3.83,0,0,1-4.63,0l-2.05-1.54a14.45,14.45,0,0,0,.53-6.35L25.55,52c0-1.26,0-2.76,0-4.12a26.93,26.93,0,0,0-.07-4.17,3.75,3.75,0,0,0-6.21-.65,4.21,4.21,0,0,0-.28.41,1.86,1.86,0,0,0-.21.62l0,.12-.2,1.4c-.29,3.15-.2,8.52-1.09,9.4h-.17L16,53.9a33.83,33.83,0,0,1-4-6.38A71.94,71.94,0,0,1,6.65,34.39C5.89,31.59,6.6,25.86,5,23.21c-.07-4.69-.11-5.85-.14-11.74a4,4,0,0,1,3.7-4A34.9,34.9,0,0,0,27.15.77a3.81,3.81,0,0,1,4.6,0A35,35,0,0,0,50.38,7.51,3.93,3.93,0,0,1,54.06,11.47Z" style="fill:#fb8500"/><path d="M46.15,32.58v.12a11,11,0,0,1-1.28,5A15.54,15.54,0,0,1,43,40.43l-4.33,5s-.12-.68-.19-.89a2.9,2.9,0,0,0-.36-.62c-.11-.15-.51-.54-.51-.54L41.43,39A13,13,0,0,0,43,36.72,8.77,8.77,0,0,0,44,32.6a8.46,8.46,0,0,0-7.9-8.26c-3.15-.16-5.88,2.26-7.38,4.57a1.09,1.09,0,0,1-1.79,0c-1.43-2.19-4-4.55-7.07-4.55h-.35a8.46,8.46,0,0,0-7.86,8.26,8.34,8.34,0,0,0,1.92,5.61l4.51,5.39-.27.28a2.41,2.41,0,0,0-.25.35.8.8,0,0,0-.18.41l-.2,1.17L12,39.57a10.64,10.64,0,0,1,7.49-17.34c3-.14,6.09,1.46,8.39,4.32,1.39-1.68,4.35-4.52,8.39-4.32A10.63,10.63,0,0,1,46.15,32.58Z" style="fill:#cbf3f0"/><path d="M33.28,53.39v.18L31,56.34a2.25,2.25,0,0,1-1.67.76,2.16,2.16,0,0,1-1.65-.75L25.51,54v-.19c0-.49,0-1.13,0-1.83v-1.3l3.78,4.22,4-4.64,0,1.38,0,.32C33.28,52.48,33.28,53,33.28,53.39Z" style="fill:#cbf3f0"/><path d="M31.05,4.81c1.15,1.28,8.19,8.71,19,6.37" style="fill:none;stroke:#feebd6;stroke-linecap:round;stroke-linejoin:round"/><path d="M28.05,5c-1.15,1.28-8.19,8.71-19,6.37" style="fill:none;stroke:#feebd6;stroke-linecap:round;stroke-linejoin:round"/></svg>