<svg xmlns="http://www.w3.org/2000/svg" viewBox="0 0 302.28 237.83"><defs><style>.cls-1{fill:#219ebc;}.cls-2{fill:#fb8500;}</style></defs><g id="Layer_2" data-name="Layer 2"><g id="BG"><polygon class="cls-1" points="44.13 34.19 44.01 28.9 72.9 0 93.5 20.59 93.7 25.43 73.3 5.02 44.13 34.19"/><polygon class="cls-2" points="116.22 6.09 116.34 11.38 87.28 40.45 66.69 19.86 66.48 15.02 86.89 35.42 116.22 6.09"/><polygon class="cls-1" points="109.86 33.73 109.98 39.02 81.09 67.92 60.49 47.33 60.28 42.49 80.69 62.9 109.86 33.73"/><polygon class="cls-2" points="37.77 61.83 37.65 56.53 66.7 27.47 87.3 48.06 87.51 52.9 67.1 32.49 37.77 61.83"/><polygon class="cls-1" points="175.74 38.59 175.86 43.88 146.97 72.78 126.37 52.2 126.16 47.36 146.57 67.76 175.74 38.59"/><polygon class="cls-2" points="103.65 66.69 103.53 61.4 132.58 32.34 153.18 52.92 153.39 57.76 132.98 37.36 103.65 66.69"/><polygon class="cls-1" points="110.01 39.05 109.89 33.76 138.78 4.87 159.38 25.45 159.59 30.29 139.18 9.89 110.01 39.05"/><polygon class="cls-2" points="182.1 10.96 182.22 16.25 153.17 45.31 132.57 24.72 132.36 19.89 152.76 40.29 182.1 10.96"/><polygon class="cls-1" points="31.58 89.16 31.46 83.86 60.35 54.97 80.95 75.55 81.16 80.39 60.75 59.99 31.58 89.16"/><polygon class="cls-2" points="103.67 61.06 103.79 66.35 74.74 95.41 54.14 74.83 53.93 69.99 74.34 90.39 103.67 61.06"/><polygon class="cls-1" points="97.31 88.69 97.43 93.98 68.54 122.88 47.94 102.3 47.73 97.46 68.14 117.86 97.31 88.69"/><polygon class="cls-2" points="25.22 116.79 25.1 111.5 54.15 82.44 74.75 103.02 74.96 107.86 54.55 87.46 25.22 116.79"/><polygon class="cls-1" points="163.19 93.56 163.31 98.85 134.42 127.75 113.83 107.16 113.61 102.32 134.02 122.73 163.19 93.56"/><polygon class="cls-2" points="91.1 121.66 90.98 116.36 120.03 87.3 140.63 107.89 140.84 112.73 120.44 92.32 91.1 121.66"/><polygon class="cls-1" points="97.46 94.02 97.34 88.73 126.23 59.83 146.83 80.42 147.04 85.26 126.63 64.85 97.46 94.02"/><polygon class="cls-2" points="169.55 65.92 169.67 71.21 140.62 100.28 120.02 79.69 119.81 74.85 140.22 95.26 169.55 65.92"/><polygon class="cls-1" points="164.19 34.19 164.07 28.9 192.96 0 213.55 20.59 213.76 25.43 193.36 5.02 164.19 34.19"/><polygon class="cls-2" points="236.28 6.09 236.4 11.38 207.34 40.45 186.75 19.86 186.54 15.02 206.94 35.42 236.28 6.09"/><polygon class="cls-1" points="229.91 33.73 230.04 39.02 201.15 67.92 180.55 47.33 180.34 42.49 200.75 62.9 229.91 33.73"/><polygon class="cls-2" points="157.83 61.83 157.71 56.53 186.76 27.47 207.36 48.06 207.57 52.9 187.16 32.49 157.83 61.83"/><polygon class="cls-1" points="295.8 38.59 295.92 43.88 267.03 72.78 246.43 52.2 246.22 47.36 266.63 67.76 295.8 38.59"/><polygon class="cls-2" points="223.71 66.69 223.59 61.4 252.64 32.34 273.24 52.92 273.45 57.76 253.04 37.36 223.71 66.69"/><polygon class="cls-1" points="230.07 39.05 229.95 33.76 258.84 4.87 279.43 25.45 279.64 30.29 259.24 9.89 230.07 39.05"/><polygon class="cls-2" points="302.16 10.96 302.28 16.25 273.23 45.31 252.63 24.72 252.42 19.89 272.82 40.29 302.16 10.96"/><polygon class="cls-1" points="151.64 89.16 151.52 83.86 180.41 54.97 201 75.55 201.22 80.39 180.81 59.99 151.64 89.16"/><polygon class="cls-2" points="223.73 61.06 223.85 66.35 194.79 95.41 174.2 74.83 173.99 69.99 194.39 90.39 223.73 61.06"/><polygon class="cls-1" points="217.37 88.69 217.49 93.98 188.6 122.88 168 102.3 167.79 97.46 188.2 117.86 217.37 88.69"/><polygon class="cls-2" points="145.28 116.79 145.16 111.5 174.21 82.44 194.81 103.02 195.02 107.86 174.61 87.46 145.28 116.79"/><polygon class="cls-1" points="283.25 93.56 283.37 98.85 254.48 127.75 233.88 107.16 233.67 102.32 254.08 122.73 283.25 93.56"/><polygon class="cls-2" points="211.16 121.66 211.04 116.36 240.09 87.3 260.69 107.89 260.9 112.73 240.49 92.32 211.16 121.66"/><polygon class="cls-1" points="217.52 94.02 217.4 88.73 246.29 59.83 266.89 80.42 267.1 85.26 246.69 64.85 217.52 94.02"/><polygon class="cls-2" points="289.61 65.92 289.73 71.21 260.68 100.28 240.08 79.69 239.87 74.85 260.27 95.26 289.61 65.92"/><polygon class="cls-1" points="19.04 144.27 18.91 138.98 47.8 110.08 68.4 130.66 68.61 135.5 48.2 115.1 19.04 144.27"/><polygon class="cls-2" points="91.12 116.17 91.24 121.46 62.19 150.52 41.59 129.94 41.38 125.1 61.79 145.5 91.12 116.17"/><polygon class="cls-1" points="84.76 143.81 84.88 149.1 55.99 178 35.4 157.41 35.19 152.57 55.59 172.97 84.76 143.81"/><polygon class="cls-2" points="12.67 171.9 12.55 166.61 41.6 137.55 62.2 158.14 62.41 162.97 42.01 142.57 12.67 171.9"/><polygon class="cls-1" points="150.64 148.67 150.76 153.96 121.87 182.86 101.28 162.27 101.07 157.44 121.47 177.84 150.64 148.67"/><polygon class="cls-2" points="78.55 176.77 78.43 171.48 107.49 142.41 128.08 163 128.29 167.84 107.89 147.44 78.55 176.77"/><polygon class="cls-1" points="84.92 149.13 84.79 143.84 113.68 114.94 134.28 135.53 134.49 140.37 114.08 119.97 84.92 149.13"/><polygon class="cls-2" points="157 121.03 157.12 126.33 128.07 155.39 107.47 134.8 107.26 129.96 127.67 150.37 157 121.03"/><polygon class="cls-1" points="6.49 199.23 6.36 193.94 35.25 165.04 55.85 185.63 56.06 190.47 35.65 170.06 6.49 199.23"/><polygon class="cls-2" points="78.57 171.13 78.69 176.43 49.64 205.49 29.04 184.9 28.83 180.06 49.24 200.47 78.57 171.13"/><polygon class="cls-1" points="72.21 198.77 72.33 204.06 43.44 232.96 22.85 212.37 22.64 207.53 43.04 227.94 72.21 198.77"/><polygon class="cls-2" points="0.12 226.87 0 221.58 29.06 192.51 49.65 213.1 49.86 217.94 29.46 197.54 0.12 226.87"/><polygon class="cls-1" points="138.09 203.64 138.21 208.93 109.32 237.83 88.73 217.24 88.52 212.4 108.92 232.81 138.09 203.64"/><polygon class="cls-2" points="66 231.74 65.88 226.44 94.94 197.38 115.53 217.97 115.74 222.81 95.34 202.4 66 231.74"/><polygon class="cls-1" points="72.37 204.1 72.24 198.81 101.13 169.91 121.73 190.5 121.94 195.34 101.53 174.93 72.37 204.1"/><polygon class="cls-2" points="144.45 176 144.57 181.29 115.52 210.35 94.92 189.77 94.71 184.93 115.12 205.33 144.45 176"/><polygon class="cls-1" points="139.09 144.27 138.97 138.98 167.86 110.08 188.46 130.66 188.67 135.5 168.26 115.1 139.09 144.27"/><polygon class="cls-2" points="211.18 116.17 211.3 121.46 182.25 150.52 161.65 129.94 161.44 125.1 181.84 145.5 211.18 116.17"/><polygon class="cls-1" points="204.82 143.81 204.94 149.1 176.05 178 155.45 157.41 155.24 152.57 175.65 172.97 204.82 143.81"/><polygon class="cls-2" points="132.73 171.9 132.61 166.61 161.66 137.55 182.26 158.14 182.47 162.97 162.06 142.57 132.73 171.9"/><polygon class="cls-1" points="270.7 148.67 270.82 153.96 241.93 182.86 221.34 162.27 221.13 157.44 241.53 177.84 270.7 148.67"/><polygon class="cls-2" points="198.61 176.77 198.49 171.48 227.54 142.41 248.14 163 248.35 167.84 227.94 147.44 198.61 176.77"/><polygon class="cls-1" points="204.97 149.13 204.85 143.84 233.74 114.94 254.34 135.53 254.55 140.37 234.14 119.97 204.97 149.13"/><polygon class="cls-2" points="277.06 121.03 277.18 126.33 248.13 155.39 227.53 134.8 227.32 129.96 247.73 150.37 277.06 121.03"/><polygon class="cls-1" points="126.54 199.23 126.42 193.94 155.31 165.04 175.91 185.63 176.12 190.47 155.71 170.06 126.54 199.23"/><polygon class="cls-2" points="198.63 171.13 198.75 176.43 169.7 205.49 149.1 184.9 148.89 180.06 169.3 200.47 198.63 171.13"/><polygon class="cls-1" points="192.27 198.77 192.39 204.06 163.5 232.96 142.91 212.37 142.69 207.53 163.1 227.94 192.27 198.77"/><polygon class="cls-2" points="120.18 226.87 120.06 221.58 149.12 192.51 169.71 213.1 169.92 217.94 149.52 197.54 120.18 226.87"/><polygon class="cls-1" points="258.15 203.64 258.27 208.93 229.38 237.83 208.79 217.24 208.58 212.4 228.98 232.81 258.15 203.64"/><polygon class="cls-2" points="186.06 231.74 185.94 226.44 215 197.38 235.59 217.97 235.8 222.81 215.4 202.4 186.06 231.74"/><polygon class="cls-1" points="192.43 204.1 192.3 198.81 221.19 169.91 241.79 190.5 242 195.34 221.59 174.93 192.43 204.1"/><polygon class="cls-2" points="264.51 176 264.63 181.29 235.58 210.35 214.98 189.77 214.77 184.93 235.18 205.33 264.51 176"/></g></g></svg>