<svg xmlns="http://www.w3.org/2000/svg" viewBox="0 0 247.01 247.52"><defs><style>.cls-1{fill:#219ebc;}.cls-2{fill:#cbf3f0;}.cls-3{fill:#fb8500;}.cls-4{fill:#fff8f0;}</style></defs><g id="Layer_2" data-name="Layer 2"><g id="Shape"><rect class="cls-1" x="167.1" y="208.97" width="38.55" height="38.55" transform="translate(-41.87 414.62) rotate(-90)"/><rect class="cls-2" x="166.96" y="168.09" width="38.55" height="38.55" transform="translate(-1.14 373.6) rotate(-90)"/><rect class="cls-3" x="208.46" y="168.28" width="38.55" height="38.55" transform="translate(40.19 415.29) rotate(-90)"/><rect class="cls-4" x="167.05" y="124.97" width="38.55" height="38.55"/><rect class="cls-4" x="208.18" y="83.87" width="38.55" height="79.91"/><rect class="cls-1" x="146.28" y="63.24" width="38.55" height="80.03" transform="translate(268.81 -62.3) rotate(90)"/><rect class="cls-2" x="125.06" y="124.57" width="38.55" height="38.55" transform="translate(288.18 -0.5) rotate(90)"/><rect class="cls-3" x="62.18" y="146.09" width="81.6" height="38.55" transform="translate(268.34 62.39) rotate(90)"/><rect class="cls-4" x="125.62" y="167.61" width="38.55" height="38.55" transform="translate(289.8 373.77) rotate(180)"/><rect class="cls-2" x="83.14" y="208.97" width="81.03" height="38.55" transform="translate(247.31 456.49) rotate(180)"/><rect class="cls-2" x="83.82" y="84.22" width="38.55" height="38.55" transform="translate(-0.41 206.59) rotate(-90)"/><rect class="cls-3" x="83.91" y="41.1" width="38.55" height="38.55"/><rect class="cls-4" x="125.04" width="38.55" height="79.91"/><rect class="cls-1" x="63.14" y="-20.63" width="38.55" height="80.03" transform="translate(101.8 -63.03) rotate(90)"/><rect class="cls-4" x="41.92" y="40.69" width="38.55" height="38.55" transform="translate(121.17 -1.23) rotate(90)"/><rect class="cls-3" x="-20.96" y="62.22" width="81.6" height="38.55" transform="translate(101.33 61.66) rotate(90)"/><rect class="cls-1" x="42.48" y="83.74" width="38.55" height="38.55" transform="translate(123.52 206.03) rotate(180)"/><rect class="cls-2" y="125.1" width="81.03" height="38.55" transform="translate(81.03 288.75) rotate(180)"/></g></g></svg>