<svg xmlns="http://www.w3.org/2000/svg" viewBox="0 0 385.7 259.93"><defs><style>.cls-1{fill:#cbf3f0;}.cls-2{fill:#fb8500;}.cls-3{fill:#219ebc;}.cls-4{fill:#fff8f0;}</style></defs><g id="Layer_2" data-name="Layer 2"><g id="BG"><polygon class="cls-1" points="169.13 19.59 169.4 30.93 107.5 92.84 63.37 48.74 62.92 38.37 106.64 82.09 169.13 19.59"/><polygon class="cls-2" points="0.27 94.64 0 83.3 62.25 21.03 106.38 65.14 106.83 75.51 63.11 31.79 0.27 94.64"/><polygon class="cls-3" points="170.12 53.29 170.39 64.63 108.49 126.54 64.36 82.43 63.91 72.07 107.63 115.78 170.12 53.29"/><polygon class="cls-4" points="1.23 128.75 0.96 117.41 63.21 55.14 107.34 99.25 107.79 109.62 64.07 65.9 1.23 128.75"/><polygon class="cls-1" points="2.63 192.12 2.37 180.78 64.27 118.86 108.39 162.97 108.84 173.34 65.12 129.62 2.63 192.12"/><polygon class="cls-2" points="171.5 117.07 171.76 128.41 109.51 190.68 65.39 146.57 64.94 136.2 108.65 179.92 171.5 117.07"/><polygon class="cls-3" points="1.64 158.42 1.38 147.08 63.28 85.17 107.4 129.28 107.85 139.64 64.13 95.93 1.64 158.42"/><polygon class="cls-4" points="170.54 82.96 170.8 94.3 108.55 156.57 64.42 112.46 63.98 102.09 107.69 145.81 170.54 82.96"/><polygon class="cls-1" points="169.72 150.78 169.99 162.12 108.09 224.03 63.96 179.92 63.51 169.56 107.23 213.27 169.72 150.78"/><polygon class="cls-2" points="0.85 225.82 0.59 214.48 62.84 152.22 106.97 196.32 107.42 206.69 63.7 162.97 0.85 225.82"/><polygon class="cls-3" points="170.71 184.47 170.97 195.81 109.08 257.73 64.95 213.62 64.5 203.25 108.22 246.97 170.71 184.47"/><polygon class="cls-4" points="1.81 259.93 1.55 248.6 63.8 186.33 107.93 230.44 108.38 240.8 64.66 197.09 1.81 259.93"/><polygon class="cls-1" points="277.14 65.45 277.4 76.79 215.51 138.71 171.38 94.6 170.93 84.23 214.65 127.95 277.14 65.45"/><polygon class="cls-2" points="108.27 140.5 108.01 129.16 170.26 66.89 214.39 111 214.84 121.37 171.12 77.65 108.27 140.5"/><polygon class="cls-3" points="278.13 99.15 278.39 110.49 216.5 172.4 172.37 128.29 171.92 117.93 215.64 161.64 278.13 99.15"/><polygon class="cls-4" points="109.23 174.61 108.97 163.27 171.22 101 215.35 145.11 215.8 155.48 172.08 111.76 109.23 174.61"/><polygon class="cls-1" points="108.59 241.12 108.33 229.78 170.23 167.87 214.35 211.98 214.8 222.34 171.09 178.63 108.59 241.12"/><polygon class="cls-2" points="277.46 166.08 277.73 177.42 215.47 239.68 171.35 195.57 170.9 185.21 214.62 228.93 277.46 166.08"/><polygon class="cls-3" points="107.61 207.43 107.34 196.09 169.24 134.18 213.37 178.28 213.81 188.65 170.1 144.93 107.61 207.43"/><polygon class="cls-4" points="277.1 133.42 277.36 144.76 214.51 205.57 170.39 161.46 169.94 151.1 213.66 194.81 277.1 133.42"/><polygon class="cls-1" points="108.59 109.15 108.33 97.82 170.23 35.9 214.35 80.01 214.8 90.38 171.09 46.66 108.59 109.15"/><polygon class="cls-2" points="277.46 34.11 277.73 45.45 215.47 107.72 171.35 63.61 170.9 53.24 214.62 96.96 277.46 34.11"/><polygon class="cls-3" points="107.61 75.46 107.34 64.12 169.24 2.21 213.37 46.32 213.81 56.68 170.1 12.97 107.61 75.46"/><polygon class="cls-4" points="276.5 0 276.77 11.34 214.51 73.6 170.39 29.5 169.94 19.13 213.66 62.85 276.5 0"/><polygon class="cls-1" points="384.45 80.86 384.71 92.2 322.81 154.11 278.69 110.01 278.24 99.64 321.96 143.36 384.45 80.86"/><polygon class="cls-2" points="215.58 155.91 215.32 144.57 277.57 82.3 321.69 126.41 322.14 136.78 278.43 93.06 215.58 155.91"/><polygon class="cls-3" points="385.44 114.56 385.7 125.9 323.8 187.81 277.69 144.62 277.24 134.26 322.94 177.05 385.44 114.56"/><polygon class="cls-4" points="216.54 190.02 216.28 178.68 278.53 116.41 322.65 160.52 323.1 170.89 279.39 127.17 216.54 190.02"/><polygon class="cls-1" points="216.22 256.21 215.95 244.88 277.85 182.96 321.98 227.07 322.43 237.44 278.71 193.72 216.22 256.21"/><polygon class="cls-2" points="385.08 181.17 385.35 192.51 323.1 254.78 278.97 210.67 278.52 200.3 322.24 244.02 385.08 181.17"/><polygon class="cls-3" points="215.23 222.52 214.96 211.18 276.86 149.27 320.99 193.38 321.44 203.74 277.72 160.03 215.23 222.52"/><polygon class="cls-4" points="384.12 147.06 384.39 158.4 322.14 220.66 278.01 176.56 277.56 166.19 321.28 209.91 384.12 147.06"/><polygon class="cls-1" points="216.22 124.25 215.95 112.91 277.85 51 321.98 95.1 322.43 105.47 278.71 61.75 216.22 124.25"/><polygon class="cls-2" points="383.75 46.22 384.01 57.55 321.76 119.82 277.63 75.71 277.19 65.35 320.9 109.06 383.75 46.22"/><polygon class="cls-3" points="215.23 90.55 214.96 79.22 276.86 17.3 320.99 61.41 321.44 71.78 277.72 28.06 215.23 90.55"/><polygon class="cls-4" points="384.12 15.09 384.39 26.43 322.14 88.7 278.01 44.59 277.56 34.22 321.28 77.94 384.12 15.09"/></g></g></svg>