<svg xmlns="http://www.w3.org/2000/svg" viewBox="0 0 276.69 348.13"><defs><style>.cls-1{fill:#fff8f0;}.cls-2{fill:#219ebc;}.cls-3{fill:#fb8500;}.cls-4{fill:#cbf3f0;}</style></defs><g id="Layer_2" data-name="Layer 2"><g id="Shape"><rect class="cls-1" x="174.38" y="176.8" width="32.18" height="66.71"/><rect class="cls-2" x="122.7" y="159.58" width="32.18" height="66.81" transform="translate(331.77 54.19) rotate(90)"/><rect class="cls-3" x="156.42" y="122.38" width="68.12" height="32.18" transform="translate(328.94 -52.01) rotate(90)"/><rect class="cls-4" x="209.04" y="140.72" width="67.65" height="32.18" transform="translate(485.74 313.61) rotate(180)"/><rect class="cls-1" x="227.13" y="228.55" width="32.18" height="66.71" transform="translate(505.13 18.69) rotate(90)"/><rect class="cls-2" x="209.96" y="176.82" width="32.18" height="66.81"/><rect class="cls-3" x="137.48" y="245.82" width="68.12" height="32.18"/><rect class="cls-4" x="156.05" y="298.22" width="67.65" height="32.18" transform="translate(-124.43 504.18) rotate(-90)"/><rect class="cls-1" x="68.99" y="72.39" width="32.18" height="66.71"/><rect class="cls-2" x="17.31" y="55.17" width="32.18" height="66.81" transform="translate(121.98 55.17) rotate(90)"/><rect class="cls-3" x="51.03" y="17.97" width="68.12" height="32.18" transform="translate(119.15 -51.03) rotate(90)"/><rect class="cls-4" x="103.66" y="36.31" width="67.65" height="32.18" transform="translate(274.96 104.79) rotate(180)"/><rect class="cls-1" x="121.74" y="124.14" width="32.18" height="66.71" transform="translate(295.33 19.66) rotate(90)"/><rect class="cls-2" x="104.57" y="72.41" width="32.18" height="66.81"/><rect class="cls-3" x="32.09" y="141.41" width="68.12" height="32.18"/><rect class="cls-4" x="50.66" y="193.81" width="67.65" height="32.18" transform="translate(-125.41 294.38) rotate(-90)"/></g></g></svg>