<svg xmlns="http://www.w3.org/2000/svg" viewBox="0 0 222.01 75.33"><defs><style>.cls-1,.cls-10,.cls-11,.cls-12,.cls-13,.cls-14,.cls-15,.cls-16,.cls-17,.cls-2,.cls-3,.cls-4,.cls-5,.cls-6,.cls-7,.cls-8,.cls-9{fill:#cbf3f0;}.cls-1{opacity:0;}.cls-2{opacity:0.06;}.cls-3{opacity:0.13;}.cls-4{opacity:0.19;}.cls-5{opacity:0.25;}.cls-6{opacity:0.31;}.cls-7{opacity:0.38;}.cls-8{opacity:0.44;}.cls-9{opacity:0.5;}.cls-10{opacity:0.56;}.cls-11{opacity:0.63;}.cls-12{opacity:0.69;}.cls-13{opacity:0.75;}.cls-14{opacity:0.81;}.cls-15{opacity:0.88;}.cls-16{opacity:0.94;}</style></defs><g id="Layer_2" data-name="Layer 2"><g id="BG"><polygon class="cls-1" points="222.01 75.14 213.99 75.33 170.19 31.54 201.39 0.32 208.73 0 177.8 30.93 222.01 75.14"/><polygon class="cls-2" points="211.37 75.14 203.35 75.33 159.55 31.54 190.76 0.32 198.09 0 167.16 30.93 211.37 75.14"/><polygon class="cls-3" points="200.74 75.14 192.72 75.33 148.91 31.54 180.12 0.32 187.45 0 156.53 30.93 200.74 75.14"/><polygon class="cls-4" points="190.1 75.14 182.08 75.33 138.28 31.54 169.48 0.32 176.82 0 145.89 30.93 190.1 75.14"/><polygon class="cls-5" points="179.46 75.14 171.44 75.33 127.64 31.54 158.85 0.32 166.18 0 135.25 30.93 179.46 75.14"/><polygon class="cls-6" points="168.83 75.14 160.81 75.33 117 31.54 148.21 0.32 155.54 0 124.61 30.93 168.83 75.14"/><polygon class="cls-7" points="158.19 75.14 150.17 75.33 106.37 31.54 137.57 0.32 144.91 0 113.98 30.93 158.19 75.14"/><polygon class="cls-8" points="147.55 75.14 139.53 75.33 95.73 31.54 126.94 0.32 134.27 0 103.34 30.93 147.55 75.14"/><polygon class="cls-9" points="136.92 75.14 128.9 75.33 85.09 31.54 116.3 0.32 123.63 0 92.7 30.93 136.92 75.14"/><polygon class="cls-10" points="126.28 75.14 118.26 75.33 74.46 31.54 105.66 0.32 113 0 82.07 30.93 126.28 75.14"/><polygon class="cls-11" points="115.64 75.14 107.62 75.33 63.82 31.54 95.03 0.32 102.36 0 71.43 30.93 115.64 75.14"/><polygon class="cls-12" points="105.01 75.14 96.99 75.33 53.18 31.54 84.39 0.32 91.72 0 60.8 30.93 105.01 75.14"/><polygon class="cls-13" points="94.37 75.14 86.35 75.33 42.55 31.54 73.75 0.32 81.09 0 50.16 30.93 94.37 75.14"/><polygon class="cls-14" points="83.73 75.14 75.71 75.33 31.91 31.54 63.12 0.32 70.45 0 39.52 30.93 83.73 75.14"/><polygon class="cls-15" points="73.1 75.14 65.08 75.33 21.27 31.54 52.48 0.32 59.81 0 28.88 30.93 73.1 75.14"/><polygon class="cls-16" points="62.46 75.14 54.44 75.33 10.64 31.54 41.84 0.32 49.17 0 18.25 30.93 62.46 75.14"/><polygon class="cls-17" points="51.82 75.14 43.8 75.33 0 31.54 31.2 0.32 38.54 0 7.61 30.93 51.82 75.14"/></g></g></svg>