<svg xmlns="http://www.w3.org/2000/svg" viewBox="0 0 222.26 75.58"><defs><style>.cls-1,.cls-10,.cls-11,.cls-12,.cls-13,.cls-14,.cls-15,.cls-16,.cls-17,.cls-2,.cls-3,.cls-4,.cls-5,.cls-6,.cls-7,.cls-8,.cls-9{fill:#fff8f0;}.cls-1{opacity:0;}.cls-2{opacity:0.06;}.cls-3{opacity:0.13;}.cls-4{opacity:0.19;}.cls-5{opacity:0.25;}.cls-6{opacity:0.31;}.cls-7{opacity:0.38;}.cls-8{opacity:0.44;}.cls-9{opacity:0.5;}.cls-10{opacity:0.56;}.cls-11{opacity:0.63;}.cls-12{opacity:0.69;}.cls-13{opacity:0.75;}.cls-14{opacity:0.81;}.cls-15{opacity:0.88;}.cls-16{opacity:0.94;}</style></defs><g id="Layer_2" data-name="Layer 2"><g id="BG"><polygon class="cls-1" points="52.07 0.19 44.05 0 0 44.04 31.2 75.26 38.54 75.58 7.61 44.65 52.07 0.19"/><polygon class="cls-2" points="62.71 0.19 54.69 0 10.64 44.04 41.84 75.26 49.17 75.58 18.25 44.65 62.71 0.19"/><polygon class="cls-3" points="73.35 0.19 65.33 0 21.27 44.04 52.48 75.26 59.81 75.58 28.88 44.65 73.35 0.19"/><polygon class="cls-4" points="83.98 0.19 75.96 0 31.91 44.04 63.12 75.26 70.45 75.58 39.52 44.65 83.98 0.19"/><polygon class="cls-5" points="94.62 0.19 86.6 0 42.55 44.04 73.75 75.26 81.09 75.58 50.16 44.65 94.62 0.19"/><polygon class="cls-6" points="105.26 0.19 97.24 0 53.18 44.04 84.39 75.26 91.72 75.58 60.8 44.65 105.26 0.19"/><polygon class="cls-7" points="115.89 0.19 107.87 0 63.82 44.04 95.03 75.26 102.36 75.58 71.43 44.65 115.89 0.19"/><polygon class="cls-8" points="126.53 0.19 118.51 0 74.46 44.04 105.66 75.26 113 75.58 82.07 44.65 126.53 0.19"/><polygon class="cls-9" points="137.17 0.19 129.15 0 85.09 44.04 116.3 75.26 123.63 75.58 92.7 44.65 137.17 0.19"/><polygon class="cls-10" points="147.8 0.19 139.78 0 95.73 44.04 126.94 75.26 134.27 75.58 103.34 44.65 147.8 0.19"/><polygon class="cls-11" points="158.44 0.19 150.42 0 106.37 44.04 137.57 75.26 144.91 75.58 113.98 44.65 158.44 0.19"/><polygon class="cls-12" points="169.08 0.19 161.06 0 117 44.04 148.21 75.26 155.54 75.58 124.61 44.65 169.08 0.19"/><polygon class="cls-13" points="179.71 0.19 171.69 0 127.64 44.04 158.85 75.26 166.18 75.58 135.25 44.65 179.71 0.19"/><polygon class="cls-14" points="190.35 0.19 182.33 0 138.28 44.04 169.48 75.26 176.82 75.58 145.89 44.65 190.35 0.19"/><polygon class="cls-15" points="200.99 0.19 192.97 0 148.91 44.04 180.12 75.26 187.45 75.58 156.53 44.65 200.99 0.19"/><polygon class="cls-16" points="211.63 0.19 203.6 0 159.55 44.04 190.76 75.26 198.09 75.58 167.16 44.65 211.63 0.19"/><polygon class="cls-17" points="222.26 0.19 214.24 0 170.19 44.04 201.39 75.26 208.73 75.58 177.8 44.65 222.26 0.19"/></g></g></svg>