<svg xmlns="http://www.w3.org/2000/svg" viewBox="0 0 222.26 75.58"><defs><style>.cls-1,.cls-10,.cls-11,.cls-12,.cls-13,.cls-14,.cls-15,.cls-16,.cls-17,.cls-2,.cls-3,.cls-4,.cls-5,.cls-6,.cls-7,.cls-8,.cls-9{fill:#fb8500;}.cls-1{opacity:0;}.cls-2{opacity:0.06;}.cls-3{opacity:0.13;}.cls-4{opacity:0.19;}.cls-5{opacity:0.25;}.cls-6{opacity:0.31;}.cls-7{opacity:0.38;}.cls-8{opacity:0.44;}.cls-9{opacity:0.5;}.cls-10{opacity:0.56;}.cls-11{opacity:0.63;}.cls-12{opacity:0.69;}.cls-13{opacity:0.75;}.cls-14{opacity:0.81;}.cls-15{opacity:0.88;}.cls-16{opacity:0.94;}</style></defs><g id="Layer_2" data-name="Layer 2"><g id="BG"><polygon class="cls-1" points="170.19 0.19 178.21 0 222.26 44.04 191.06 75.26 183.72 75.58 214.65 44.65 170.19 0.19"/><polygon class="cls-2" points="159.55 0.19 167.57 0 211.63 44.04 180.42 75.26 173.09 75.58 204.01 44.65 159.55 0.19"/><polygon class="cls-3" points="148.91 0.19 156.94 0 200.99 44.04 169.78 75.26 162.45 75.58 193.38 44.65 148.91 0.19"/><polygon class="cls-4" points="138.28 0.19 146.3 0 190.35 44.04 159.15 75.26 151.81 75.58 182.74 44.65 138.28 0.19"/><polygon class="cls-5" points="127.64 0.19 135.66 0 179.71 44.04 148.51 75.26 141.18 75.58 172.1 44.65 127.64 0.19"/><polygon class="cls-6" points="117 0.19 125.03 0 169.08 44.04 137.87 75.26 130.54 75.58 161.47 44.65 117 0.19"/><polygon class="cls-7" points="106.37 0.19 114.39 0 158.44 44.04 127.23 75.26 119.9 75.58 150.83 44.65 106.37 0.19"/><polygon class="cls-8" points="95.73 0.19 103.75 0 147.8 44.04 116.6 75.26 109.27 75.58 140.19 44.65 95.73 0.19"/><polygon class="cls-9" points="85.09 0.19 93.11 0 137.17 44.04 105.96 75.26 98.63 75.58 129.56 44.65 85.09 0.19"/><polygon class="cls-10" points="74.46 0.19 82.48 0 126.53 44.04 95.33 75.26 87.99 75.58 118.92 44.65 74.46 0.19"/><polygon class="cls-11" points="63.82 0.19 71.84 0 115.89 44.04 84.69 75.26 77.36 75.58 108.28 44.65 63.82 0.19"/><polygon class="cls-12" points="53.18 0.19 61.2 0 105.26 44.04 74.05 75.26 66.72 75.58 97.65 44.65 53.18 0.19"/><polygon class="cls-13" points="42.55 0.19 50.57 0 94.62 44.04 63.41 75.26 56.08 75.58 87.01 44.65 42.55 0.19"/><polygon class="cls-14" points="31.91 0.19 39.93 0 83.98 44.04 52.78 75.26 45.45 75.58 76.37 44.65 31.91 0.19"/><polygon class="cls-15" points="21.27 0.19 29.29 0 73.35 44.04 42.14 75.26 34.81 75.58 65.74 44.65 21.27 0.19"/><polygon class="cls-16" points="10.64 0.19 18.66 0 62.71 44.04 31.5 75.26 24.17 75.58 55.1 44.65 10.64 0.19"/><polygon class="cls-17" points="0 0.19 8.02 0 52.07 44.04 20.87 75.26 13.53 75.58 44.46 44.65 0 0.19"/></g></g></svg>