<svg xmlns="http://www.w3.org/2000/svg" viewBox="0 0 222.01 75.33"><defs><style>.cls-1,.cls-10,.cls-11,.cls-12,.cls-13,.cls-14,.cls-15,.cls-16,.cls-17,.cls-2,.cls-3,.cls-4,.cls-5,.cls-6,.cls-7,.cls-8,.cls-9{fill:#219ebc;}.cls-1{opacity:0;}.cls-2{opacity:0.06;}.cls-3{opacity:0.13;}.cls-4{opacity:0.19;}.cls-5{opacity:0.25;}.cls-6{opacity:0.31;}.cls-7{opacity:0.38;}.cls-8{opacity:0.44;}.cls-9{opacity:0.5;}.cls-10{opacity:0.56;}.cls-11{opacity:0.63;}.cls-12{opacity:0.69;}.cls-13{opacity:0.75;}.cls-14{opacity:0.81;}.cls-15{opacity:0.88;}.cls-16{opacity:0.94;}</style></defs><g id="Layer_2" data-name="Layer 2"><g id="BG"><polygon class="cls-1" points="0 75.14 8.02 75.33 51.82 31.54 20.62 0.32 13.28 0 44.21 30.93 0 75.14"/><polygon class="cls-2" points="10.64 75.14 18.66 75.33 62.46 31.54 31.25 0.32 23.92 0 54.85 30.93 10.64 75.14"/><polygon class="cls-3" points="21.27 75.14 29.29 75.33 73.1 31.54 41.89 0.32 34.56 0 65.48 30.93 21.27 75.14"/><polygon class="cls-4" points="31.91 75.14 39.93 75.33 83.73 31.54 52.53 0.32 45.19 0 76.12 30.93 31.91 75.14"/><polygon class="cls-5" points="42.55 75.14 50.57 75.33 94.37 31.54 63.16 0.32 55.83 0 86.76 30.93 42.55 75.14"/><polygon class="cls-6" points="53.18 75.14 61.2 75.33 105.01 31.54 73.8 0.32 66.47 0 97.4 30.93 53.18 75.14"/><polygon class="cls-7" points="63.82 75.14 71.84 75.33 115.64 31.54 84.44 0.32 77.11 0 108.03 30.93 63.82 75.14"/><polygon class="cls-8" points="74.46 75.14 82.48 75.33 126.28 31.54 95.08 0.32 87.74 0 118.67 30.93 74.46 75.14"/><polygon class="cls-9" points="85.09 75.14 93.11 75.33 136.92 31.54 105.71 0.32 98.38 0 129.31 30.93 85.09 75.14"/><polygon class="cls-10" points="95.73 75.14 103.75 75.33 147.55 31.54 116.35 0.32 109.02 0 139.94 30.93 95.73 75.14"/><polygon class="cls-11" points="106.37 75.14 114.39 75.33 158.19 31.54 126.98 0.32 119.65 0 150.58 30.93 106.37 75.14"/><polygon class="cls-12" points="117 75.14 125.03 75.33 168.83 31.54 137.62 0.32 130.29 0 161.22 30.93 117 75.14"/><polygon class="cls-13" points="127.64 75.14 135.66 75.33 179.46 31.54 148.26 0.32 140.93 0 171.85 30.93 127.64 75.14"/><polygon class="cls-14" points="138.28 75.14 146.3 75.33 190.1 31.54 158.9 0.32 151.56 0 182.49 30.93 138.28 75.14"/><polygon class="cls-15" points="148.91 75.14 156.94 75.33 200.74 31.54 169.53 0.32 162.2 0 193.13 30.93 148.91 75.14"/><polygon class="cls-16" points="159.55 75.14 167.57 75.33 211.37 31.54 180.17 0.32 172.84 0 203.76 30.93 159.55 75.14"/><polygon class="cls-17" points="170.19 75.14 178.21 75.33 222.01 31.54 190.81 0.32 183.47 0 214.4 30.93 170.19 75.14"/></g></g></svg>